<svg width="14" height="14" viewBox="0 0 14 14" fill="none" xmlns="http://www.w3.org/2000/svg">
<path fill-rule="evenodd" clip-rule="evenodd" d="M6.5625 0C2.93825 0 0 2.93825 0 6.5625C0 10.1867 2.93825 13.125 6.5625 13.125C10.1867 13.125 13.125 10.1867 13.125 6.5625C13.125 2.93825 10.1867 0 6.5625 0ZM7.45558 5.59942C6.71183 4.85567 5.53962 3.74675 4.64042 2.90383C5.23301 2.5919 5.89282 2.4294 6.5625 2.43046C8.8445 2.43046 10.6945 4.2805 10.6945 6.5625C10.6945 7.25725 10.523 7.91146 10.2206 8.48575C9.35521 7.5635 8.2075 6.35133 7.45558 5.59942ZM2.43046 6.5625C2.43046 5.86833 2.60167 5.21471 2.90383 4.64042C3.74675 5.53962 4.85567 6.71183 5.59942 7.45558C6.35133 8.2075 7.5635 9.35521 8.48575 10.2206C7.89286 10.5329 7.23262 10.6956 6.5625 10.6945C4.2805 10.6945 2.43046 8.8445 2.43046 6.5625Z" fill="black"/>
</svg>
