<svg width="24" height="24" viewBox="0 0 24 24" fill="none" xmlns="http://www.w3.org/2000/svg">
<path d="M8.00098 10.7505H4.00098C3.27186 10.7497 2.57282 10.4598 2.05725 9.94421C1.54169 9.42865 1.25172 8.72961 1.25098 8.00049V4.00049C1.25172 3.27137 1.54169 2.57233 2.05725 2.05676C2.57282 1.5412 3.27186 1.25123 4.00098 1.25049H8.00098C8.7301 1.25123 9.42914 1.5412 9.9447 2.05676C10.4603 2.57233 10.7502 3.27137 10.751 4.00049V8.00049C10.7502 8.72961 10.4603 9.42865 9.9447 9.94421C9.42914 10.4598 8.7301 10.7497 8.00098 10.7505ZM4.00098 2.75049C3.66955 2.7508 3.35179 2.88259 3.11743 3.11694C2.88308 3.3513 2.75128 3.66906 2.75098 4.00049V8.00049C2.75128 8.33192 2.88308 8.64968 3.11743 8.88403C3.35179 9.11839 3.66955 9.25018 4.00098 9.25049H8.00098C8.3324 9.25018 8.65017 9.11839 8.88452 8.88403C9.11888 8.64968 9.25067 8.33192 9.25098 8.00049V4.00049C9.25067 3.66906 9.11888 3.3513 8.88452 3.11694C8.65017 2.88259 8.3324 2.7508 8.00098 2.75049H4.00098Z" fill="white"/>
<path d="M20.001 10.7505H16.001C15.2719 10.7497 14.5728 10.4598 14.0573 9.94421C13.5417 9.42865 13.2517 8.72961 13.251 8.00049V4.00049C13.2517 3.27137 13.5417 2.57233 14.0573 2.05676C14.5728 1.5412 15.2719 1.25123 16.001 1.25049H20.001C20.7301 1.25123 21.4291 1.5412 21.9447 2.05676C22.4603 2.57233 22.7502 3.27137 22.751 4.00049V8.00049C22.7502 8.72961 22.4603 9.42865 21.9447 9.94421C21.4291 10.4598 20.7301 10.7497 20.001 10.7505ZM16.001 2.75049C15.6696 2.7508 15.3518 2.88259 15.1174 3.11694C14.8831 3.3513 14.7513 3.66906 14.751 4.00049V8.00049C14.7513 8.33192 14.8831 8.64968 15.1174 8.88403C15.3518 9.11839 15.6696 9.25018 16.001 9.25049H20.001C20.3324 9.25018 20.6502 9.11839 20.8845 8.88403C21.1189 8.64968 21.2507 8.33192 21.251 8.00049V4.00049C21.2507 3.66906 21.1189 3.3513 20.8845 3.11694C20.6502 2.88259 20.3324 2.7508 20.001 2.75049H16.001Z" fill="white"/>
<path d="M8.00098 22.7505H4.00098C3.27186 22.7497 2.57282 22.4598 2.05725 21.9442C1.54169 21.4287 1.25172 20.7296 1.25098 20.0005V16.0005C1.25172 15.2714 1.54169 14.5723 2.05725 14.0568C2.57282 13.5412 3.27186 13.2512 4.00098 13.2505H8.00098C8.7301 13.2512 9.42914 13.5412 9.9447 14.0568C10.4603 14.5723 10.7502 15.2714 10.751 16.0005V20.0005C10.7502 20.7296 10.4603 21.4287 9.9447 21.9442C9.42914 22.4598 8.7301 22.7497 8.00098 22.7505ZM4.00098 14.7505C3.66955 14.7508 3.35179 14.8826 3.11743 15.1169C2.88308 15.3513 2.75128 15.6691 2.75098 16.0005V20.0005C2.75128 20.3319 2.88308 20.6497 3.11743 20.884C3.35179 21.1184 3.66955 21.2502 4.00098 21.2505H8.00098C8.3324 21.2502 8.65017 21.1184 8.88452 20.884C9.11888 20.6497 9.25067 20.3319 9.25098 20.0005V16.0005C9.25067 15.6691 9.11888 15.3513 8.88452 15.1169C8.65017 14.8826 8.3324 14.7508 8.00098 14.7505H4.00098Z" fill="white"/>
<path d="M18.0002 23.3348C17.7705 23.3352 17.5428 23.2903 17.3305 23.2025C17.1181 23.1146 16.9253 22.9857 16.7629 22.823L13.177 19.2371C12.8492 18.9087 12.665 18.4637 12.665 17.9998C12.665 17.5358 12.8492 17.0908 13.177 16.7625L16.7629 13.1765C17.0913 12.8487 17.5363 12.6646 18.0002 12.6646C18.4642 12.6646 18.9092 12.8487 19.2375 13.1765L22.8235 16.7625C23.1513 17.0908 23.3354 17.5358 23.3354 17.9998C23.3354 18.4637 23.1513 18.9087 22.8235 19.2371L19.2375 22.823C19.0752 22.9857 18.8823 23.1146 18.67 23.2024C18.4577 23.2903 18.23 23.3352 18.0002 23.3348ZM18.0002 14.1639C17.9674 14.1638 17.9349 14.1702 17.9045 14.1828C17.8742 14.1953 17.8466 14.2138 17.8235 14.2371L14.2375 17.823C14.2143 17.8462 14.1959 17.8738 14.1833 17.9041C14.1708 17.9344 14.1643 17.9669 14.1643 17.9998C14.1643 18.0326 14.1708 18.0651 14.1833 18.0954C14.1959 18.1257 14.2143 18.1533 14.2375 18.1765L17.8235 21.7625C17.8467 21.7857 17.8742 21.8041 17.9046 21.8167C17.9349 21.8292 17.9674 21.8357 18.0002 21.8357C18.0331 21.8357 18.0656 21.8292 18.0959 21.8167C18.1262 21.8041 18.1538 21.7857 18.177 21.7625L21.7629 18.1765C21.7862 18.1533 21.8046 18.1257 21.8171 18.0954C21.8297 18.0651 21.8362 18.0326 21.8362 17.9998C21.8362 17.9669 21.8297 17.9344 21.8171 17.9041C21.8046 17.8738 21.7862 17.8462 21.7629 17.823L18.177 14.2371C18.1538 14.2138 18.1263 14.1953 18.096 14.1827C18.0656 14.1702 18.0331 14.1638 18.0002 14.1639Z" fill="white"/>
</svg>
