<svg width="28" height="28" viewBox="0 0 28 28" fill="none" xmlns="http://www.w3.org/2000/svg">
<path d="M23.625 9.9295C24.6563 10.2608 25.375 11.2455 25.375 12.376V17.3763C25.375 18.7017 24.3868 19.8263 23.065 19.9348C22.6683 19.9663 22.2717 19.9955 21.875 20.0188V23.625L18.375 20.125C16.7953 20.125 15.232 20.0608 13.685 19.9348C13.3482 19.9076 13.0206 19.8115 12.7225 19.6525M23.625 9.9295C23.4447 9.87148 23.2584 9.83429 23.0697 9.81867C19.9453 9.5593 16.8047 9.5593 13.6803 9.81867C12.3608 9.92834 11.375 11.0518 11.375 12.376V17.3763C11.375 18.3528 11.9117 19.2197 12.7225 19.6525M23.625 9.9295V7.74317C23.625 5.852 22.281 4.21283 20.405 3.969C17.991 3.65609 15.5592 3.49943 13.125 3.5C10.6575 3.5 8.22733 3.65983 5.845 3.969C3.969 4.21283 2.625 5.852 2.625 7.74317V15.0068C2.625 16.898 3.969 18.5372 5.845 18.781C6.51817 18.8685 7.19483 18.9443 7.875 19.0073V24.5L12.7225 19.6525" stroke="white" stroke-opacity="0.6" stroke-width="1.5" stroke-linecap="round" stroke-linejoin="round"/>
</svg>
