<svg width="19" height="19" viewBox="0 0 19 19" fill="none" xmlns="http://www.w3.org/2000/svg">
<path d="M2.37533 9.5C1.50449 9.5 0.791992 8.7875 0.791992 7.91667V3.95833C0.791992 3.0875 1.50449 2.375 2.37533 2.375H8.70866C9.57949 2.375 10.292 3.0875 10.292 3.95833V7.91667C10.292 8.7875 9.57949 9.5 8.70866 9.5H7.12533V11.875L4.75033 9.5H2.37533ZM16.6253 14.25C17.4962 14.25 18.2087 13.5375 18.2087 12.6667V8.70833C18.2087 7.8375 17.4962 7.125 16.6253 7.125H11.8753V7.91667C11.8753 9.65833 10.4503 11.0833 8.70866 11.0833V12.6667C8.70866 13.5375 9.42116 14.25 10.292 14.25H11.8753V16.625L14.2503 14.25H16.6253Z" fill="black"/>
</svg>
