<svg width="24" height="24" viewBox="0 0 24 24" fill="none" xmlns="http://www.w3.org/2000/svg">
<g clip-path="url(#clip0_1377_1114)">
<path d="M0.119141 10.0352C0.258248 9.92183 0.442244 9.876 0.617188 9.91113L4.68945 10.7256C5.26111 10.8396 5.69476 11.2492 5.87695 11.7637C6.46339 11.6076 7.43592 11.3994 8.5 11.3994C9.49248 11.3994 10.2387 11.7614 11.0068 12.1318C11.6305 12.433 12.2659 12.7381 13.1191 12.9111C14.0686 13.104 15.0159 13.3303 15.7432 13.6914C16.4333 14.0342 16.9441 14.5093 17.0576 15.2109C17.5669 15.066 18.2775 14.8722 18.9834 14.7109C19.7392 14.5383 20.4993 14.3994 21 14.3994C21.8973 14.3994 22.6681 14.6083 23.2178 14.9746C23.7693 15.3423 24.0996 15.8716 24.0996 16.5C24.0996 16.7378 23.9591 16.9538 23.7412 17.0498C23.3746 17.2103 22.8077 17.4892 22.1182 17.8281C20.798 18.4772 19.1366 19.2938 17.5625 19.9482C16.7753 20.2755 16.0074 20.5629 15.3145 20.7686C14.623 20.9738 13.9992 21.0996 13.5 21.0996C12.9356 21.0996 12.1882 20.9458 11.374 20.7109C10.5579 20.4755 9.66661 20.1565 8.81055 19.8213C7.18386 19.1844 5.67942 18.487 5.05176 18.1895C4.79197 18.7243 4.25777 19.0996 3.63281 19.0996H0.5C0.168437 19.0996 -0.0995543 18.8316 -0.0996094 18.5V10.5C-0.0996094 10.32 -0.0188526 10.1502 0.119141 10.0361V10.0352ZM8.5 12.5996C7.35371 12.5996 6.30201 12.8811 5.89062 13.0059L5.32129 16.9873C6.17722 17.4015 7.7535 18.1199 9.3457 18.7393C10.1603 19.0561 10.9781 19.3473 11.7041 19.5586C12.4325 19.7706 13.0605 19.8994 13.5 19.8994C13.9111 19.8994 14.4707 19.7803 15.123 19.5771C15.7734 19.3746 16.5084 19.0919 17.2666 18.7715C18.7829 18.1307 20.3868 17.342 21.5889 16.751C22.0432 16.5282 22.447 16.3294 22.7783 16.1719C22.6514 16.0113 22.4295 15.8757 22.1416 15.7764C21.8058 15.6605 21.3986 15.5996 21 15.5996C20.5322 15.5996 19.6767 15.7734 18.8174 15.9844C17.9625 16.1943 17.1171 16.4378 16.6768 16.5732C16.6492 16.5817 16.6239 16.5841 16.6055 16.585C16.602 16.5851 16.5985 16.5849 16.5957 16.585C16.5914 16.5893 16.5864 16.5942 16.5811 16.5996C16.5664 16.6143 16.5479 16.6326 16.5254 16.6494C16.1141 16.957 15.4915 17.1025 14.6699 17.1025C13.407 17.1025 11.635 16.7585 9.3291 16.0752C9.01136 15.9808 8.8311 15.6465 8.9248 15.3291L8.9707 15.2168C9.10209 14.971 9.39097 14.8434 9.66992 14.9238L9.6709 14.9248C12 15.616 13.4685 15.8593 14.3906 15.9023C15.3154 15.9455 15.6775 15.7858 15.8086 15.6875C15.8468 15.6589 15.8676 15.6341 15.8799 15.6094C15.8923 15.5842 15.9004 15.5508 15.9004 15.5C15.9004 15.2522 15.717 15.0099 15.2217 14.7686C14.7304 14.5293 13.9657 14.3078 12.8809 14.0879C11.8782 13.884 11.1331 13.5255 10.4854 13.2129C9.76092 12.8639 9.21189 12.5996 8.5 12.5996ZM1.09961 17.8994H3.63281C3.83009 17.8994 4.00116 17.752 4.0293 17.5566L4.77246 12.3516C4.80285 12.1418 4.66303 11.9443 4.45508 11.9023L1.09961 11.2314V17.8994Z" fill="white" stroke="white" stroke-width="0.2"/>
<path d="M18 2.90039C19.7095 2.9004 21.0996 4.29046 21.0996 6C21.0996 6.82786 20.7765 7.6058 20.1914 8.19141V8.19238L16.4219 11.9258C16.3055 12.042 16.152 12.0996 16 12.0996C15.886 12.0996 15.7713 12.0672 15.6719 12.002L15.5781 11.9258L11.8105 8.19336C11.2235 7.60631 10.9004 6.8279 10.9004 6C10.9004 4.29046 12.2905 2.90039 14 2.90039C14.7452 2.90039 15.4456 3.16559 16 3.6416C16.5544 3.16561 17.2549 2.90039 18 2.90039ZM18 4.09961C17.4752 4.09961 16.9864 4.31479 16.627 4.69824L16.4814 4.87207C16.3647 5.0279 16.1792 5.10254 16 5.10254C15.8431 5.10254 15.6816 5.0454 15.5654 4.92676L15.5186 4.87207C15.1522 4.38026 14.5995 4.09961 14 4.09961C12.9527 4.09961 12.0996 4.95223 12.0996 6C12.0996 6.50741 12.2974 6.98361 12.6562 7.34277L16 10.6553L19.3457 7.3418L19.4717 7.20215C19.7487 6.8644 19.9004 6.44418 19.9004 6C19.9004 4.95219 19.0473 4.09962 18 4.09961Z" fill="white" stroke="white" stroke-width="0.2"/>
</g>
<defs>
<clipPath id="clip0_1377_1114">
<rect width="24" height="24" fill="white"/>
</clipPath>
</defs>
</svg>
