<svg width="23" height="19" viewBox="0 0 23 19" fill="none" xmlns="http://www.w3.org/2000/svg">
<path d="M0.8395 0.339553C0.944934 0.17168 1.10911 0.0549567 1.29592 0.0150521C1.48274 -0.0248525 1.67689 0.0153286 1.83569 0.12676L3.99194 1.64823C4.14446 1.76258 4.24884 1.93528 4.28292 2.12967C4.317 2.32405 4.27809 2.52483 4.17446 2.68939C4.07083 2.85394 3.91064 2.96932 3.72787 3.01104C3.54511 3.05276 3.35416 3.01753 3.19556 2.91283L1.03931 1.39288C0.880779 1.28116 0.770682 1.10746 0.733214 0.909946C0.695747 0.712435 0.733976 0.507275 0.8395 0.339553ZM11.5 0.000603821C9.78438 0.000603821 8.13903 0.721222 6.9259 2.00393C5.71278 3.28664 5.03125 5.02636 5.03125 6.84039V10.4898L3.6455 14.1574C3.6018 14.2727 3.58549 14.3976 3.59801 14.5211C3.61053 14.6446 3.65149 14.763 3.71731 14.8659C3.78314 14.9688 3.87181 15.0531 3.97557 15.1114C4.07933 15.1696 4.19502 15.2001 4.3125 15.2001H18.6875C18.8048 15.2 18.9203 15.1695 19.0239 15.1113C19.1275 15.0532 19.2161 14.969 19.2818 14.8664C19.3476 14.7637 19.3886 14.6455 19.4013 14.5222C19.414 14.3989 19.3979 14.2742 19.3545 14.159L17.9688 10.4883V6.84039C17.9688 5.02636 17.2872 3.28664 16.0741 2.00393C14.861 0.721222 13.2156 0.000603821 11.5 0.000603821ZM11.5 19C10.8625 19.0002 10.243 18.7763 9.73899 18.3636C9.23495 17.9509 8.87494 17.3727 8.71556 16.7201H14.2844C14.1251 17.3727 13.765 17.9509 13.261 18.3636C12.757 18.7763 12.1375 19.0002 11.5 19ZM21.1643 0.12828C21.3229 0.0235805 21.5139 -0.0116489 21.6966 0.030069C21.8794 0.0717868 22.0396 0.187168 22.1432 0.351724C22.2468 0.51628 22.2857 0.717058 22.2517 0.911446C22.2176 1.10583 22.1132 1.27853 21.9607 1.39288L19.8044 2.91283C19.6458 3.01753 19.4549 3.05276 19.2721 3.01104C19.0894 2.96932 18.9292 2.85394 18.8255 2.68939C18.7219 2.52483 18.683 2.32405 18.7171 2.12967C18.7512 1.93528 18.8555 1.76258 19.0081 1.64823L21.1643 0.12828ZM0 6.84039C0 6.63883 0.0757252 6.44553 0.210517 6.303C0.345309 6.16048 0.528126 6.08041 0.71875 6.08041H2.875C3.06562 6.08041 3.24844 6.16048 3.38323 6.303C3.51802 6.44553 3.59375 6.63883 3.59375 6.84039C3.59375 7.04194 3.51802 7.23525 3.38323 7.37777C3.24844 7.52029 3.06562 7.60036 2.875 7.60036H0.71875C0.528126 7.60036 0.345309 7.52029 0.210517 7.37777C0.0757252 7.23525 0 7.04194 0 6.84039ZM22.2812 6.08041C22.4719 6.08041 22.6547 6.16048 22.7895 6.303C22.9243 6.44553 23 6.63883 23 6.84039C23 7.04194 22.9243 7.23525 22.7895 7.37777C22.6547 7.52029 22.4719 7.60036 22.2812 7.60036H20.125C19.9344 7.60036 19.7516 7.52029 19.6168 7.37777C19.482 7.23525 19.4062 7.04194 19.4062 6.84039C19.4062 6.63883 19.482 6.44553 19.6168 6.303C19.7516 6.16048 19.9344 6.08041 20.125 6.08041H22.2812Z" fill="white"/>
</svg>
