<svg width="32" height="32" viewBox="0 0 32 32" fill="none" xmlns="http://www.w3.org/2000/svg">
<path d="M18.5999 7.84009C18.3945 7.84519 18.1902 7.80774 17.9999 7.73009C17.795 7.62254 17.6187 7.46749 17.4859 7.27788C17.3532 7.08828 17.2677 6.86965 17.2367 6.64026C17.2057 6.41087 17.2301 6.17739 17.3078 5.95935C17.3855 5.74131 17.5142 5.54503 17.6833 5.38694C17.8524 5.22885 18.0569 5.11354 18.2796 5.05065C18.5024 4.98775 18.737 4.9791 18.9638 5.02542C19.1906 5.07174 19.403 5.17168 19.5833 5.31689C19.7635 5.4621 19.9064 5.64836 19.9999 5.86009C20.145 6.21587 20.145 6.61431 19.9999 6.97009C19.8837 7.24096 19.6871 7.46963 19.4367 7.62521C19.1864 7.78079 18.8943 7.8558 18.5999 7.84009Z" fill="white"/>
<path d="M15.1198 30.37C14.5044 30.3668 13.8959 30.2411 13.3298 30L5.06976 26.42C4.52679 26.1872 4.03524 25.8492 3.6234 25.4256C3.21156 25.002 2.88758 24.5012 2.67009 23.9519C2.4526 23.4026 2.3459 22.8157 2.35614 22.225C2.36638 21.6343 2.49336 21.0514 2.72976 20.51L8.72976 6.69001C8.9595 6.15086 9.29324 5.66227 9.71191 5.25218C10.1306 4.84209 10.626 4.51853 11.1698 4.30001L17.0898 2.00001C18.1999 1.56373 19.4377 1.585 20.5322 2.05915C21.6267 2.53331 22.4887 3.42174 22.9298 4.53001L25.2698 10.44C25.4921 10.9893 25.6022 11.5775 25.5936 12.1701C25.585 12.7626 25.4579 13.3474 25.2198 13.89L19.2198 27.7C18.7472 28.7959 17.8588 29.6592 16.7498 30.1C16.2273 30.2881 15.675 30.3796 15.1198 30.37ZM4.55976 21.3C4.30093 21.9092 4.2922 22.5958 4.53545 23.2115C4.7787 23.8271 5.2544 24.3223 5.85976 24.59L14.1298 28.16C14.4304 28.2907 14.7539 28.3607 15.0816 28.366C15.4094 28.3714 15.735 28.312 16.0397 28.1912C16.3445 28.0704 16.6224 27.8906 16.8575 27.6622C17.0926 27.4338 17.2803 27.1611 17.4098 26.86L23.4098 13.04C23.6593 12.4278 23.6593 11.7422 23.4098 11.13L21.0698 5.21001C20.8248 4.59544 20.3463 4.103 19.739 3.84059C19.1317 3.57817 18.4452 3.56718 17.8298 3.81001L11.9098 6.15001C11.6037 6.27083 11.3248 6.45161 11.0895 6.68172C10.8542 6.91184 10.6673 7.18665 10.5398 7.49001L4.55976 21.3Z" fill="white"/>
<path d="M20.2402 28.9999C19.7667 28.9981 19.2969 28.917 18.8502 28.7599C18.608 28.6645 18.4126 28.4784 18.3054 28.2411C18.1983 28.0039 18.1879 27.7342 18.2764 27.4894C18.365 27.2446 18.5455 27.044 18.7796 26.9302C19.0137 26.8163 19.283 26.7983 19.5302 26.8799C20.0353 27.0612 20.5905 27.0431 21.0829 26.8295C21.5752 26.6159 21.9676 26.2226 22.1802 25.7299L27.5002 13.3799C27.7104 12.8603 27.7104 12.2794 27.5002 11.7599L25.4402 6.4999C25.2545 6.02898 24.9064 5.64005 24.4589 5.40345C24.0114 5.16685 23.4939 5.09819 23.0002 5.2099C22.735 5.26559 22.4585 5.21365 22.2316 5.0655C22.0047 4.91734 21.8459 4.68512 21.7902 4.4199C21.7345 4.15468 21.7864 3.8782 21.9346 3.65128C22.0828 3.42437 22.315 3.26559 22.5802 3.2099C23.5418 3.00126 24.5464 3.14367 25.4121 3.61139C26.2779 4.07911 26.9476 4.84124 27.3002 5.7599L29.3902 10.9999C29.5889 11.5028 29.686 12.0402 29.6757 12.5809C29.6654 13.1216 29.548 13.6549 29.3302 14.1499L24.0002 26.4799C23.6879 27.2211 23.1654 27.8547 22.4973 28.3025C21.8291 28.7503 21.0445 28.9927 20.2402 28.9999Z" fill="white"/>
<path d="M17.0997 12.8299C17.5728 13.1563 17.939 13.6151 18.1525 14.1488C18.366 14.6825 18.4172 15.2673 18.2997 15.8299L15.8597 15.5199C15.9618 15.331 16.0004 15.1143 15.9698 14.9018C15.9392 14.6893 15.841 14.4923 15.6897 14.3399C15.5879 14.2261 15.4613 14.1372 15.3197 14.0799C15.1642 14.0032 14.9932 13.9633 14.8197 13.9633C14.6463 13.9633 14.4753 14.0032 14.3197 14.0799C14.2257 14.1291 14.1489 14.2058 14.0997 14.2999C13.9697 14.5899 14.0997 14.9099 14.4997 15.2999C14.7248 15.5021 14.9655 15.686 15.2197 15.8499C15.8098 16.2519 16.3357 16.7408 16.7797 17.2999C17.0172 17.6497 17.1571 18.0564 17.1852 18.4782C17.2134 18.9 17.1286 19.3217 16.9397 19.6999C16.7636 20.0714 16.4903 20.3883 16.1488 20.6171C15.8073 20.846 15.4103 20.9782 14.9997 20.9999C14.5226 21.0745 14.0368 21.0745 13.5597 20.9999L13.2497 21.7199L10.9997 20.7199L11.3197 19.9899C10.9461 19.716 10.6351 19.3657 10.4075 18.9622C10.1799 18.5587 10.0409 18.1113 9.99975 17.6499C9.95972 17.3981 9.95972 17.1417 9.99975 16.8899L12.4497 17.1999C12.3524 17.3993 12.3241 17.6254 12.3693 17.8427C12.4146 18.0599 12.5308 18.256 12.6997 18.3999C12.843 18.5444 13.0127 18.6598 13.1997 18.7399C13.3873 18.8491 13.597 18.9147 13.8134 18.932C14.0297 18.9493 14.2472 18.9178 14.4497 18.8399C14.5364 18.8016 14.607 18.7344 14.6497 18.6499C14.7797 18.3399 14.6497 18.0099 14.2697 17.6499L13.1697 16.8099C12.4913 16.3773 11.9638 15.7449 11.6597 14.9999C11.5005 14.4163 11.5573 13.7949 11.8197 13.2499C11.9898 12.8856 12.2498 12.5705 12.5752 12.3344C12.9005 12.0982 13.2807 11.9487 13.6797 11.8999C14.0617 11.8547 14.4477 11.8547 14.8297 11.8999L15.1597 11.1499L17.3997 12.1499L17.0997 12.8299Z" fill="white"/>
</svg>
