<svg width="28" height="28" viewBox="0 0 28 28" fill="none" xmlns="http://www.w3.org/2000/svg">
<path d="M10.4997 6.4165C10.4997 5.48825 10.8684 4.59801 11.5248 3.94163C12.1812 3.28525 13.0714 2.9165 13.9997 2.9165C14.9279 2.9165 15.8182 3.28525 16.4745 3.94163C17.1309 4.59801 17.4997 5.48825 17.4997 6.4165C17.4997 7.34476 17.1309 8.235 16.4745 8.89138C15.8182 9.54775 14.9279 9.9165 13.9997 9.9165C13.0714 9.9165 12.1812 9.54775 11.5248 8.89138C10.8684 8.235 10.4997 7.34476 10.4997 6.4165ZM21.583 4.08317C20.8095 4.08317 20.0676 4.39046 19.5206 4.93744C18.9736 5.48442 18.6663 6.22629 18.6663 6.99984C18.6663 7.77339 18.9736 8.51525 19.5206 9.06223C20.0676 9.60921 20.8095 9.9165 21.583 9.9165C22.3566 9.9165 23.0984 9.60921 23.6454 9.06223C24.1924 8.51525 24.4997 7.77339 24.4997 6.99984C24.4997 6.22629 24.1924 5.48442 23.6454 4.93744C23.0984 4.39046 22.3566 4.08317 21.583 4.08317ZM6.41634 4.08317C5.64279 4.08317 4.90093 4.39046 4.35395 4.93744C3.80697 5.48442 3.49967 6.22629 3.49967 6.99984C3.49967 7.77339 3.80697 8.51525 4.35395 9.06223C4.90093 9.60921 5.64279 9.9165 6.41634 9.9165C7.18989 9.9165 7.93176 9.60921 8.47874 9.06223C9.02572 8.51525 9.33301 7.77339 9.33301 6.99984C9.33301 6.22629 9.02572 5.48442 8.47874 4.93744C7.93176 4.39046 7.18989 4.08317 6.41634 4.08317ZM11.2288 11.0832C10.5713 11.0832 9.94074 11.3444 9.47581 11.8093C9.01087 12.2742 8.74967 12.9048 8.74967 13.5623V19.8332C8.74967 21.2256 9.3028 22.5609 10.2874 23.5455C11.2719 24.53 12.6073 25.0832 13.9997 25.0832C15.3921 25.0832 16.7274 24.53 17.712 23.5455C18.6966 22.5609 19.2497 21.2256 19.2497 19.8332V13.5623C19.2497 12.9048 18.9885 12.2742 18.5235 11.8093C18.0586 11.3444 17.428 11.0832 16.7705 11.0832H11.2288ZM7.58301 13.5623C7.58301 12.629 7.93418 11.7768 8.51167 11.1316C8.34994 11.0993 8.18542 11.0831 8.02051 11.0832H4.81218C4.15466 11.0832 3.52407 11.3444 3.05914 11.8093C2.59421 12.2742 2.33301 12.9048 2.33301 13.5623V19.2498C2.33281 19.955 2.51524 20.6482 2.86252 21.2619C3.2098 21.8756 3.71009 22.389 4.31468 22.7519C4.91927 23.1149 5.60755 23.315 6.31249 23.333C7.01743 23.3509 7.71499 23.186 8.33726 22.8543C7.84048 21.9249 7.58136 20.887 7.58301 19.8332V13.5623ZM20.4163 19.8332C20.4163 20.9252 20.1433 21.9536 19.6621 22.8543C20.2844 23.186 20.9819 23.3509 21.6869 23.333C22.3918 23.315 23.0801 23.1149 23.6847 22.7519C24.2893 22.389 24.7896 21.8756 25.1368 21.2619C25.4841 20.6482 25.6665 19.955 25.6663 19.2498V13.5623C25.6663 12.9048 25.4051 12.2742 24.9402 11.8093C24.4753 11.3444 23.8447 11.0832 23.1872 11.0832H19.9788C19.8105 11.0836 19.6467 11.0997 19.4877 11.1316C20.0866 11.7994 20.4174 12.6652 20.4163 13.5623V19.8332Z" fill="white" fill-opacity="0.6"/>
</svg>
