<svg width="32" height="32" viewBox="0 0 32 32" fill="none" xmlns="http://www.w3.org/2000/svg">
<path fill-rule="evenodd" clip-rule="evenodd" d="M23.668 5.06563C23.668 4.48297 23.312 3.95897 22.7693 3.7443C22.2266 3.52963 21.608 3.6683 21.2093 4.09363C18.6733 6.79897 15.1306 8.33363 11.424 8.33363C9.81464 8.33363 8.12797 8.33363 6.66797 8.33363C5.3413 8.33363 4.07064 8.8603 3.13197 9.79763C2.19464 10.7363 1.66797 12.007 1.66797 13.3336V14.667C1.66797 15.9936 2.19464 17.2643 3.13197 18.203C4.07064 19.1403 5.3413 19.667 6.66797 19.667H11.424C15.1306 19.667 18.6733 21.2016 21.2093 23.907C21.608 24.3323 22.2266 24.471 22.7693 24.2563C23.312 24.0416 23.668 23.5176 23.668 22.935C23.668 19.4683 23.668 8.5323 23.668 5.06563Z" fill="black"/>
<path fill-rule="evenodd" clip-rule="evenodd" d="M29.3359 13H27.3359C26.7839 13 26.3359 13.448 26.3359 14C26.3359 14.552 26.7839 15 27.3359 15H29.3359C29.8879 15 30.3359 14.552 30.3359 14C30.3359 13.448 29.8879 13 29.3359 13Z" fill="black"/>
<path fill-rule="evenodd" clip-rule="evenodd" d="M25.585 19.3336L26.9996 20.7483C27.3903 21.1376 28.0236 21.1376 28.4143 20.7483C28.8036 20.3576 28.8036 19.7243 28.4143 19.3336L26.9996 17.919C26.609 17.5296 25.9756 17.5296 25.585 17.919C25.1956 18.3096 25.1956 18.943 25.585 19.3336Z" fill="black"/>
<path fill-rule="evenodd" clip-rule="evenodd" d="M26.9996 10.0823L28.4143 8.6676C28.8036 8.27694 28.8036 7.6436 28.4143 7.25294C28.0236 6.8636 27.3903 6.8636 26.9996 7.25294L25.585 8.6676C25.1956 9.05827 25.1956 9.6916 25.585 10.0823C25.9756 10.4716 26.609 10.4716 26.9996 10.0823Z" fill="black"/>
<path fill-rule="evenodd" clip-rule="evenodd" d="M5.92969 20.957L6.83102 26.4024C7.01635 27.529 7.99102 28.3557 9.13235 28.3557H12.2564C12.8337 28.3557 13.371 28.057 13.6737 27.565C13.9777 27.0744 14.0057 26.4597 13.747 25.9437L12.963 24.3744C12.951 24.3517 12.943 24.329 12.9364 24.305L12.1257 21.0197C11.8924 21.0064 6.17369 20.985 5.92969 20.957Z" fill="black"/>
</svg>
