<svg width="24" height="24" viewBox="0 0 24 24" fill="none" xmlns="http://www.w3.org/2000/svg">
<path d="M21.3824 19.6581C21.5412 17.1888 21.6246 14.627 21.6246 12.0004C21.6246 11.2912 21.6186 10.5867 21.6066 9.88752C21.5834 8.53816 21.1531 7.22038 20.3289 6.15181C18.9588 4.37589 17.7332 3.14377 15.8493 1.69509C15.2995 1.27226 14.6262 1.04227 13.9327 1.02665C13.1769 1.00963 12.3871 1.00098 11.5418 1.00098C8.98602 1.00098 6.93789 1.08007 4.79998 1.23058C3.13263 1.34795 1.80847 2.67475 1.70125 4.34279C1.54251 6.81212 1.45898 9.3739 1.45898 12.0004C1.45898 14.627 1.54251 17.1888 1.70125 19.6581C1.80847 21.3261 3.13263 22.6529 4.79998 22.7704C6.93789 22.9207 8.98602 23 11.5418 23C14.0977 23 16.1458 22.9207 18.2836 22.7704C19.9511 22.6529 21.2752 21.3261 21.3824 19.6581Z" stroke="white" stroke-width="1.5" stroke-linecap="round" stroke-linejoin="round"/>
<path d="M8.24219 12.0264H14.8396" stroke="white" stroke-width="1.5" stroke-linecap="round" stroke-linejoin="round"/>
<path d="M8.24219 17.0566H14.819M8.24219 6.80908H12.2234" stroke="white" stroke-width="1.5" stroke-linecap="round" stroke-linejoin="round"/>
<path d="M4.86719 19.125H4.87519V19.133H4.86719V19.125Z" stroke="white" stroke-width="1.5" stroke-linecap="round" stroke-linejoin="round"/>
</svg>
