<svg width="20" height="20" viewBox="0 0 20 20" fill="none" xmlns="http://www.w3.org/2000/svg">
<g clip-path="url(#clip0_187_54623)">
<path d="M0.994141 6.61267V18.7514C0.994141 19.1676 1.34096 19.4913 1.73403 19.4913H18.2427C18.6589 19.4913 18.9826 19.1445 18.9826 18.7514V6.61267H0.994141ZM13.734 11.2601C13.734 11.6763 13.3872 12 12.9941 12H6.98258C6.56639 12 6.2427 11.6531 6.2427 11.2601V9.75718C6.2427 9.34099 6.58952 9.01729 6.98258 9.01729H12.9941C13.4103 9.01729 13.734 9.36412 13.734 9.75718V11.2601Z" fill="black"/>
<path d="M19.237 0.508667H0.739884C0.323699 0.508667 0 0.855488 0 1.24855V5.61849H20V1.27167C19.9769 0.855488 19.6532 0.508667 19.237 0.508667Z" fill="black"/>
</g>
<defs>
<clipPath id="clip0_187_54623">
<rect width="20" height="20" fill="white"/>
</clipPath>
</defs>
</svg>
