<svg width="28" height="28" viewBox="0 0 28 28" fill="none" xmlns="http://www.w3.org/2000/svg">
<path d="M24.8299 21.5071C24.996 18.9253 25.0832 16.247 25.0832 13.5009C25.0832 12.7594 25.0769 12.0229 25.0644 11.2919C25.0401 9.88111 24.5902 8.50337 23.7285 7.38618C22.2961 5.52946 21.0147 4.24127 19.0451 2.72667C18.4703 2.2846 17.7663 2.04415 17.0413 2.02782C16.2511 2.01002 15.4254 2.00098 14.5416 2.00098C11.8695 2.00098 9.7282 2.08367 7.49301 2.24102C5.7498 2.36374 4.36538 3.75091 4.25329 5.49485C4.08733 8.07653 4 10.7549 4 13.5009C4 16.247 4.08733 18.9253 4.25329 21.5071C4.36538 23.2509 5.7498 24.6381 7.49301 24.7609C9.7282 24.9181 11.8695 25.001 14.5416 25.001C17.2137 25.001 19.3551 24.9181 21.5902 24.7609C23.3335 24.6381 24.7179 23.2509 24.8299 21.5071Z" stroke="black" stroke-width="1.5" stroke-linecap="round" stroke-linejoin="round"/>
<path d="M11.0918 13.5288H17.9893" stroke="black" stroke-width="1.5" stroke-linecap="round" stroke-linejoin="round"/>
<path d="M11.0918 18.787H17.9679M11.0918 8.07324H15.2541" stroke="black" stroke-width="1.5" stroke-linecap="round" stroke-linejoin="round"/>
</svg>
