<svg width="30" height="30" viewBox="0 0 30 30" fill="none" xmlns="http://www.w3.org/2000/svg">
<path d="M1.18939 13.6101C1.32848 15.5187 2.37413 17.0537 3.67356 17.2664C4.63875 17.4243 5.62975 17.56 6.64012 17.56C7.65051 17.56 8.6415 17.4243 9.60669 17.2664C10.9061 17.0537 11.9518 15.5187 12.0909 13.6101C12.1935 12.2012 12.2802 10.7547 12.2802 9.28C12.2802 7.80528 12.1935 6.35879 12.0909 4.94985C11.9518 3.04127 10.9061 1.50622 9.60669 1.29359C8.6415 1.13565 7.65051 1 6.64012 1C5.62975 1 4.63875 1.13565 3.67356 1.29359C2.37413 1.50622 1.32848 3.04127 1.18939 4.94985C1.08671 6.35879 1 7.80528 1 9.28C1 10.7547 1.08671 12.2012 1.18939 13.6101Z" stroke="#999999" stroke-width="2" stroke-linecap="round" stroke-linejoin="round"/>
<path d="M28.8128 16.3936C28.6736 14.4863 27.6255 12.9522 26.3232 12.7397C25.3558 12.5818 24.3626 12.4463 23.35 12.4463C22.3374 12.4463 21.3441 12.5818 20.3768 12.7397C19.0744 12.9522 18.0265 14.4863 17.8871 16.3936C17.7842 17.8016 17.6973 19.2472 17.6973 20.7209C17.6973 22.1948 17.7842 23.6402 17.8871 25.0483C18.0265 26.9556 19.0744 28.4898 20.3768 28.7022C21.3441 28.8599 22.3374 28.9956 23.35 28.9956C24.3626 28.9956 25.3558 28.8599 26.3232 28.7022C27.6255 28.4898 28.6736 26.9556 28.8128 25.0483C28.9157 23.6402 29.0026 22.1948 29.0026 20.7209C29.0026 19.2472 28.9157 17.8016 28.8128 16.3936Z" stroke="#999999" stroke-width="2" stroke-linecap="round" stroke-linejoin="round"/>
<path d="M1.18939 27.573C1.32848 28.2626 2.37413 28.8173 3.67356 28.8941C4.63875 28.9513 5.62975 29.0002 6.64012 29.0002C7.65051 29.0002 8.6415 28.9513 9.60669 28.8941C10.9061 28.8173 11.9518 28.2626 12.0909 27.573C12.1935 27.0639 12.2802 26.541 12.2802 26.0082C12.2802 25.4751 12.1935 24.9525 12.0909 24.4433C11.9518 23.7537 10.9061 23.199 9.60669 23.1222C8.6415 23.065 7.65051 23.0161 6.64012 23.0161C5.62975 23.0161 4.63875 23.065 3.67356 23.1222C2.37413 23.199 1.32848 23.7537 1.18939 24.4433C1.08671 24.9525 1 25.4751 1 26.0082C1 26.541 1.08671 27.0639 1.18939 27.573Z" stroke="#999999" stroke-width="2" stroke-linecap="round" stroke-linejoin="round"/>
<path d="M28.8128 2.42734C28.6736 1.73764 27.6255 1.18293 26.3232 1.10609C25.3558 1.04902 24.3626 1 23.35 1C22.3374 1 21.3441 1.04902 20.3768 1.10609C19.0744 1.18293 18.0265 1.73764 17.8871 2.42734C17.7842 2.93649 17.6973 3.45921 17.6973 3.99211C17.6973 4.52503 17.7842 5.04774 17.8871 5.55689C18.0265 6.24657 19.0744 6.8013 20.3768 6.87815C21.3441 6.93521 22.3374 6.98423 23.35 6.98423C24.3626 6.98423 25.3558 6.93521 26.3232 6.87815C27.6255 6.8013 28.6736 6.24657 28.8128 5.55689C28.9157 5.04774 29.0026 4.52503 29.0026 3.99211C29.0026 3.45921 28.9157 2.93649 28.8128 2.42734Z" stroke="#999999" stroke-width="2" stroke-linecap="round" stroke-linejoin="round"/>
</svg>
