<svg width="40" height="40" viewBox="0 0 40 40" fill="none" xmlns="http://www.w3.org/2000/svg">
<rect width="40" height="40" rx="12" fill="#5960DF" fill-opacity="0.1"/>
<path d="M25.0003 11.0417H15.0003C13.9505 11.0417 12.9437 11.4587 12.2014 12.201C11.4591 12.9434 11.042 13.9502 11.042 15V25C11.0381 25.0136 11.0381 25.028 11.042 25.0417C11.053 26.0842 11.4749 27.0804 12.216 27.8137C12.9572 28.5471 13.9577 28.9584 15.0003 28.9583H25.0003C26.0387 28.9563 27.0346 28.5463 27.7735 27.8167C28.5124 27.0872 28.935 26.0966 28.9503 25.0583V15C28.9503 13.9516 28.5345 12.9461 27.7939 12.204C27.0534 11.4619 26.0487 11.0439 25.0003 11.0417ZM27.7087 23.3333L24.2253 19.35C24.004 19.1144 23.7368 18.9266 23.4401 18.7982C23.1434 18.6699 22.8236 18.6037 22.5003 18.6037C22.1771 18.6037 21.8573 18.6699 21.5606 18.7982C21.2639 18.9266 20.9967 19.1144 20.7753 19.35L18.3837 22.0833L17.6003 21.1333C17.3845 20.8744 17.1144 20.6661 16.8091 20.5231C16.5038 20.3801 16.1708 20.306 15.8337 20.306C15.4966 20.306 15.1636 20.3801 14.8583 20.5231C14.553 20.6661 14.2829 20.8744 14.067 21.1333L12.292 23.275V15C12.2942 14.2824 12.5803 13.5948 13.0877 13.0873C13.5951 12.5799 14.2827 12.2939 15.0003 12.2917H25.0003C25.718 12.2939 26.4056 12.5799 26.913 13.0873C27.4204 13.5948 27.7065 14.2824 27.7087 15V23.3333Z" fill="#5660E5"/>
<path d="M15.8346 17.5C16.7551 17.5 17.5013 16.7538 17.5013 15.8333C17.5013 14.9128 16.7551 14.1667 15.8346 14.1667C14.9142 14.1667 14.168 14.9128 14.168 15.8333C14.168 16.7538 14.9142 17.5 15.8346 17.5Z" fill="#5660E5"/>
</svg>
