<svg width="18" height="18" viewBox="0 0 18 18" fill="none" xmlns="http://www.w3.org/2000/svg">
<path d="M10.728 3.63278L12.867 5.77178M5.25 5.24978H3C2.80109 5.24978 2.61032 5.3288 2.46967 5.46945C2.32902 5.6101 2.25 5.80087 2.25 5.99978V13.4998C2.25 13.6987 2.32902 13.8895 2.46967 14.0301C2.61032 14.1708 2.80109 14.2498 3 14.2498H11.25C11.4489 14.2498 11.6397 14.1708 11.7803 14.0301C11.921 13.8895 12 13.6987 12 13.4998V10.1248M13.8068 2.69228C13.9473 2.83276 14.0588 2.99955 14.1348 3.18312C14.2109 3.36669 14.25 3.56345 14.25 3.76216C14.25 3.96086 14.2109 4.15762 14.1348 4.34119C14.0588 4.52476 13.9473 4.69155 13.8068 4.83203L8.67375 9.96503L6 10.4998L6.53475 7.82603L11.6678 2.69303C11.8081 2.55243 11.9748 2.44089 12.1583 2.36479C12.3419 2.28868 12.5386 2.24951 12.7372 2.24951C12.9359 2.24951 13.1326 2.28868 13.3162 2.36479C13.4997 2.44089 13.6664 2.55243 13.8068 2.69303V2.69228Z" stroke="black" stroke-width="1.5" stroke-linecap="round" stroke-linejoin="round"/>
</svg>
