<svg width="44" height="44" viewBox="0 0 44 44" fill="none" xmlns="http://www.w3.org/2000/svg">
<path d="M35.0395 23.0445L18.6761 39.4079C18.4854 39.5986 18.2765 39.7802 18.0586 39.9437C18.331 40.0163 18.6125 40.0526 18.9031 40.0526H34.2858C36.1474 40.0526 37.6638 38.5361 37.6638 36.6746V22.9173C36.9374 22.8719 36.1928 22.7811 35.4209 22.6358C35.3029 22.772 35.1757 22.9083 35.0395 23.0445Z" fill="black"/>
<path d="M41.9597 12.3292C41.9324 12.302 41.9052 12.2747 41.8779 12.2475C40.3615 10.731 38.1548 9.33259 35.6486 8.28831C35.1945 8.09762 34.7314 7.92508 34.2683 7.77071V7.74347C34.2411 5.73663 32.6247 4.12027 30.6179 4.09303L20.8107 3.94774C19.5122 3.92957 18.259 4.43809 17.3419 5.35524L0.987526 21.7278C-0.329175 23.0445 -0.329175 25.1875 0.987526 26.5042L11.8662 37.3829C13.1829 38.6996 15.326 38.6996 16.6427 37.3829L33.0152 21.0104C33.4874 20.5382 33.8415 19.9843 34.0867 19.3758C35.7303 19.839 37.3285 20.0841 38.736 20.0751C42.223 20.0569 43.3762 18.5313 43.7576 17.6233C44.1299 16.7152 44.4024 14.8173 41.9597 12.3292ZM21.7006 21.6188C21.3192 21.8276 20.9288 22.0547 20.5383 22.2544C20.166 22.4451 20.0388 22.3997 19.9026 22.0002C19.6211 21.2011 19.1671 20.52 18.5405 19.957C18.3771 19.8117 18.2045 19.6755 17.9957 19.5938C17.2511 19.3032 16.5973 19.7845 16.6881 20.5836C16.7335 20.9831 16.8606 21.3645 17.015 21.7368C17.2783 22.3816 17.5598 23.0263 17.7505 23.6983C18.368 25.8413 17.0059 27.948 14.8538 28.1569C14.0728 28.2295 13.3282 28.0661 12.6471 27.6756C12.3475 27.5031 12.1205 27.5212 11.8935 27.7755C11.6664 28.0207 11.4122 28.2477 11.1761 28.4838C10.9672 28.6927 10.7402 28.7017 10.5313 28.4929C10.268 28.2477 10.0137 27.9844 9.75949 27.7301C9.54155 27.5031 9.55971 27.267 9.77765 27.049C9.95018 26.8765 10.1227 26.6949 10.2952 26.5224C10.6766 26.1319 10.6766 26.1046 10.3679 25.6779C9.96834 25.133 9.61419 24.5609 9.39626 23.9162C9.22372 23.4168 9.26913 23.2896 9.72316 23.0354C10.0591 22.8447 10.3951 22.654 10.7402 22.4724C11.1398 22.2635 11.2578 22.3089 11.394 22.7357C11.621 23.4622 11.9933 24.1069 12.4565 24.7062C12.7561 25.0967 13.1284 25.3873 13.5825 25.5689C14.436 25.9049 15.217 25.3055 15.1262 24.3975C15.0989 24.0887 15.0081 23.7891 14.8901 23.4985C14.5995 22.7539 14.2272 22.0365 14.0365 21.2465C13.7187 19.9752 13.864 18.8128 14.8901 17.9048C16.0524 16.8787 17.351 16.8151 18.7221 17.4507C19.2851 17.7141 19.2851 17.7232 19.721 17.2873C19.8663 17.142 20.0116 16.9967 20.166 16.8514C20.502 16.5336 20.6109 16.5336 20.9469 16.8514C21.0468 16.9513 21.1467 17.0512 21.2466 17.1511C21.9367 17.8412 21.9367 17.8412 21.2466 18.5404C20.7562 19.0308 20.7562 19.0308 21.1648 19.5938C21.4827 20.0297 21.7279 20.4928 21.9185 20.9922C22.0184 21.2646 21.964 21.4735 21.7006 21.6188ZM41.1242 16.5336C40.8155 17.2691 37.5192 17.9139 32.5157 15.8253C31.0447 15.2169 29.6825 14.4541 28.5656 13.6368C28.5293 13.6822 28.4839 13.7277 28.4476 13.7731C27.3579 14.8627 25.5781 14.8627 24.4884 13.7731C23.3987 12.6834 23.3987 10.9036 24.4884 9.81387C25.5781 8.72419 27.3579 8.72419 28.4476 9.81387C29.1014 10.4677 29.3556 11.3576 29.2376 12.2021C30.3091 12.9649 31.5986 13.6641 32.9698 14.2362C33.4601 14.4359 33.9232 14.6176 34.3773 14.7719L34.3228 10.8309C34.4045 10.8672 34.4772 10.8945 34.5589 10.9308C36.7019 11.8207 38.627 13.0375 39.8711 14.2816C39.8893 14.2997 39.9074 14.3179 39.9256 14.3361C41.1061 15.5256 41.2241 16.2884 41.1242 16.5336Z" fill="black"/>
</svg>
