<svg width="32" height="32" viewBox="0 0 32 32" fill="none" xmlns="http://www.w3.org/2000/svg">
<path d="M16.7742 12.4862C15.3157 12.6923 14.0419 14.0615 14.0296 14.0739C14.0112 14.0928 13.9906 14.1094 13.968 14.1231C11.9865 15.4092 10.8696 14.4308 10.8234 14.3723C9.55572 13.2308 10.7188 11.3169 10.768 11.2369C11.2873 10.3739 11.9161 9.58163 12.6388 8.88H7.25726L4.92188 16.5846C4.94696 16.5985 4.96978 16.6162 4.98957 16.6369C8.61418 20.7354 13.4265 24.3723 15.325 25.7446C15.5225 25.8907 15.7682 25.9563 16.0123 25.9282C16.2564 25.9 16.4807 25.7802 16.6398 25.5929C16.7989 25.4056 16.881 25.1649 16.8694 24.9195C16.8578 24.674 16.7533 24.4422 16.5773 24.2708L13.965 21.6585C13.9076 21.6008 13.8755 21.5228 13.8755 21.4415C13.8755 21.3603 13.9076 21.2823 13.965 21.2246C13.9936 21.1958 14.0276 21.1729 14.0651 21.1573C14.1026 21.1416 14.1428 21.1336 14.1834 21.1336C14.224 21.1336 14.2642 21.1416 14.3017 21.1573C14.3392 21.1729 14.3733 21.1958 14.4019 21.2246L15.7926 22.6154L17.0234 23.8462L17.6388 24.4769C17.8596 24.6919 18.1558 24.8119 18.4639 24.8112C18.7721 24.8104 19.0677 24.689 19.2874 24.4729C19.5071 24.2568 19.6334 23.9633 19.6393 23.6552C19.6452 23.3471 19.5301 23.0489 19.3188 22.8246L16.9219 20.3231L16.4665 19.8523C16.4377 19.8237 16.4148 19.7897 16.3991 19.7522C16.3835 19.7147 16.3755 19.6745 16.3755 19.6339C16.3755 19.5932 16.3835 19.553 16.3991 19.5155C16.4148 19.478 16.4377 19.444 16.4665 19.4154C16.4951 19.3865 16.5291 19.3637 16.5666 19.348C16.6041 19.3324 16.6443 19.3244 16.685 19.3244C16.7256 19.3244 16.7658 19.3324 16.8033 19.348C16.8408 19.3637 16.8748 19.3865 16.9034 19.4154L20.4019 23.0462C20.5713 23.2138 20.7857 23.3287 21.0192 23.3768C21.2526 23.4249 21.495 23.4042 21.7169 23.3172C21.9388 23.2302 22.1307 23.0807 22.2692 22.8867C22.4077 22.6928 22.4869 22.4627 22.4973 22.2246C22.5024 22.0569 22.4721 21.8899 22.4085 21.7346C22.3449 21.5793 22.2493 21.4391 22.128 21.3231L20.0296 19.2923L18.568 17.8739C18.5355 17.8467 18.5089 17.8131 18.49 17.7752C18.471 17.7373 18.4601 17.6959 18.4579 17.6536C18.4557 17.6113 18.4622 17.569 18.4771 17.5293C18.492 17.4897 18.515 17.4535 18.5445 17.4231C18.574 17.3927 18.6095 17.3688 18.6488 17.3528C18.688 17.3367 18.7301 17.329 18.7725 17.33C18.8148 17.331 18.8565 17.3407 18.8949 17.3586C18.9334 17.3765 18.9677 17.4021 18.9957 17.4339L23.1496 21.4554C23.2585 21.5673 23.389 21.656 23.5331 21.7161C23.6772 21.7762 23.832 21.8065 23.9882 21.8052C24.1444 21.8039 24.2986 21.771 24.4417 21.7085C24.5848 21.646 24.7138 21.5551 24.8209 21.4414C24.9279 21.3277 25.0108 21.1935 25.0646 21.0469C25.1184 20.9003 25.142 20.7443 25.1339 20.5884C25.1258 20.4324 25.0862 20.2797 25.0175 20.1394C24.9488 19.9992 24.8524 19.8743 24.7342 19.7723L16.7742 12.4862Z" fill="black"/>
<path d="M6.3197 7.07696C4.72234 6.35881 2.98057 6.01973 1.23047 6.08619V18.1539H3.11047C3.31112 18.1544 3.50646 18.0894 3.66691 17.969C3.82736 17.8485 3.94419 17.679 3.9997 17.4862L6.82432 8.18465C6.88888 7.97022 6.87329 7.73963 6.78045 7.53584C6.68762 7.33206 6.52386 7.16896 6.3197 7.07696Z" fill="black"/>
<path d="M17.7697 7.67381C17.1062 7.40066 16.3647 7.38421 15.6897 7.62765C14.5113 8.05842 12.7913 9.09227 11.2805 11.56C11.2805 11.5784 10.3359 13.0984 11.2251 13.9169C11.2559 13.9446 12.0497 14.6092 13.5882 13.6277C13.8097 13.3969 15.1974 12.0061 16.8374 11.8553C16.8798 11.8518 16.9225 11.8571 16.9627 11.8708C17.003 11.8846 17.0399 11.9066 17.0713 11.9353L25.1359 19.32C25.1728 19.3538 25.2066 19.3907 25.2405 19.4277C26.1636 19.2861 26.7789 18.443 26.9574 18.1353L24.0343 10.1692L17.7697 7.67381Z" fill="black"/>
<path d="M30.1544 7.55389C28.3993 7.54223 26.6586 7.87032 25.0282 8.52004C24.809 8.61401 24.6346 8.7892 24.5417 9.00889C24.4487 9.22859 24.4445 9.47573 24.5298 9.6985L27.9544 19.0185C28.0212 19.1983 28.1412 19.3535 28.2984 19.4634C28.4556 19.5733 28.6426 19.6328 28.8344 19.6339H30.7698V7.56927C30.6159 7.56004 30.4036 7.55389 30.1544 7.55389Z" fill="black"/>
</svg>
