<svg width="20" height="20" viewBox="0 0 20 20" fill="none" xmlns="http://www.w3.org/2000/svg">
<path d="M18.1237 8.65001L16.5862 15.4438C16.5557 15.5859 16.4766 15.713 16.3626 15.8031C16.2485 15.8932 16.1066 15.9407 15.9612 15.9375H3.98623C3.84089 15.9407 3.69896 15.8932 3.58489 15.8031C3.47081 15.713 3.39172 15.5859 3.36123 15.4438L1.87373 8.65001C1.84869 8.53522 1.85652 8.41569 1.89632 8.30514C1.93612 8.1946 2.00627 8.09751 2.09873 8.02501C2.19144 7.95225 2.30283 7.9072 2.42006 7.89503C2.53728 7.88287 2.65555 7.90409 2.76123 7.95626L6.41123 9.72501L9.43623 4.37501C9.49074 4.27882 9.56979 4.19882 9.66531 4.14316C9.76084 4.08749 9.86942 4.05817 9.97998 4.05817C10.0905 4.05817 10.1991 4.08749 10.2946 4.14316C10.3902 4.19882 10.4692 4.27882 10.5237 4.37501L13.5487 9.73126L17.2237 7.95001C17.3302 7.89359 17.4506 7.86913 17.5706 7.87957C17.6906 7.89002 17.8051 7.93492 17.9002 8.00888C17.9953 8.08283 18.0669 8.18269 18.1066 8.29644C18.1463 8.41018 18.1522 8.53296 18.1237 8.65001Z" fill="black"/>
</svg>
