<svg width="24" height="24" viewBox="0 0 24 24" fill="none" xmlns="http://www.w3.org/2000/svg">
<path fill-rule="evenodd" clip-rule="evenodd" d="M18.9692 3.65902C18.7603 3.45008 18.5122 3.28435 18.2392 3.17127C17.9663 3.0582 17.6737 3 17.3782 3C17.0827 3 16.7901 3.0582 16.5171 3.17127C16.2442 3.28435 15.9961 3.45008 15.7872 3.65902L4.84719 14.599C4.14397 15.3024 3.74896 16.2563 3.74905 17.2509C3.74915 18.2455 4.14434 19.1993 4.84769 19.9025C5.55105 20.6057 6.50495 21.0008 7.49955 21.0007C8.49415 21.0006 9.44797 20.6054 10.1512 19.902L17.8442 12.209C17.9864 12.0765 18.1744 12.0044 18.3687 12.0078C18.563 12.0113 18.7484 12.09 18.8858 12.2274C19.0232 12.3648 19.1019 12.5502 19.1054 12.7445C19.1088 12.9388 19.0367 13.1268 18.9042 13.269L11.2112 20.962C10.726 21.4599 10.1469 21.8564 9.50722 22.1287C8.86759 22.4009 8.18027 22.5434 7.48513 22.5479C6.78999 22.5524 6.10088 22.4188 5.45778 22.1549C4.81468 21.8909 4.23041 21.5019 3.73886 21.0104C3.24731 20.5188 2.85828 19.9345 2.59433 19.2914C2.33039 18.6483 2.19679 17.9592 2.20128 17.2641C2.20578 16.5689 2.34828 15.8816 2.62052 15.242C2.89277 14.6024 3.28933 14.0232 3.78719 13.538L14.7262 2.59802C15.4295 1.8948 16.3834 1.49978 17.378 1.49988C18.3726 1.49997 19.3265 1.89516 20.0297 2.59852C20.7329 3.30187 21.1279 4.25577 21.1278 5.25037C21.1277 6.24497 20.7325 7.1988 20.0292 7.90202L9.09619 18.835L9.08819 18.843L9.08119 18.85L9.07919 18.852L9.07619 18.854C8.64855 19.2532 8.08228 19.4701 7.49742 19.4587C6.91256 19.4474 6.3551 19.2088 5.94322 18.7934C5.53135 18.378 5.29744 17.8185 5.29108 17.2336C5.28473 16.6487 5.50644 16.0843 5.90919 15.66L13.7192 7.85002C13.8606 7.71333 14.05 7.63765 14.2466 7.63926C14.4433 7.64088 14.6314 7.71966 14.7706 7.85866C14.9097 7.99765 14.9887 8.18572 14.9905 8.38237C14.9923 8.57902 14.9167 8.7685 14.7802 8.91002L6.97019 16.72C6.82857 16.8598 6.74827 17.0501 6.74695 17.2491C6.74564 17.448 6.82342 17.6394 6.96319 17.781C7.10296 17.9226 7.29327 18.0029 7.49224 18.0043C7.69122 18.0056 7.88257 17.9278 8.02419 17.788L18.9692 6.84002C19.1781 6.63109 19.3439 6.38305 19.4569 6.11006C19.57 5.83708 19.6282 5.5445 19.6282 5.24902C19.6282 4.95354 19.57 4.66096 19.4569 4.38797C19.3439 4.11499 19.1781 3.86795 18.9692 3.65902Z" fill="black"/>
</svg>
