<svg width="32" height="32" viewBox="0 0 32 32" fill="none" xmlns="http://www.w3.org/2000/svg">
<g clip-path="url(#clip0_187_67739)">
<path d="M16.8673 31.8966C34.2731 30.8977 37.509 6.38447 20.9933 0.879846C16.4232 -0.649654 11.1831 0.0460334 7.18496 2.7431H7.18608C5.33312 3.97511 3.75899 5.58187 2.56524 7.45972C1.3715 9.33756 0.584651 11.4448 0.25546 13.6455L0.25446 13.6448C-1.31198 23.4683 6.93077 32.5462 16.8673 31.8966ZM29.7496 21.8075C29.1814 23.1527 28.4177 24.4067 27.4833 25.5289C27.4173 25.1356 27.5993 24.68 27.3281 24.313C27.0339 23.7393 26.7613 23.154 26.4547 22.5872C26.3407 22.3763 26.3721 22.2552 26.5401 22.1035C28.3396 20.5245 26.7355 21.364 26.9122 19.1073C26.9186 19.0464 26.9065 18.9849 26.8775 18.9308C26.8486 18.8768 26.804 18.8327 26.7497 18.8042C25.8967 18.2596 24.7831 18.0725 23.9016 18.6778C22.803 19.197 21.236 18.7998 20.8806 17.5388C20.5663 16.7007 20.6048 15.8542 20.5966 14.9982C20.6473 14.5366 21.2805 14.4591 21.1778 13.9255C21.2022 13.248 20.9814 12.5328 21.6221 12.0907C21.6712 12.0473 21.7297 12.016 21.7929 11.9993C21.8562 11.9825 21.9226 11.9807 21.9866 11.9941C22.5721 12.0649 23.1637 11.9269 23.6574 11.6045C24.181 11.2725 24.8274 11.4874 25.4074 11.4118C25.6838 11.3922 25.8886 11.4733 26.0588 11.6885C26.3935 12.111 26.9169 12.2351 27.3566 12.4917C27.5046 12.578 27.584 12.4692 27.6534 12.3797C28.0228 11.9031 28.589 11.743 29.0855 11.4689C29.3558 11.314 29.898 11.9055 30.3595 11.9265C31.2791 15.1456 31.0657 18.7292 29.7496 21.8075ZM29.5334 9.70885C28.9823 9.78135 29.3529 9.25778 29.0685 8.98385C28.7828 8.72896 28.5111 8.45886 28.2546 8.17472C28.1218 8.03285 28.0358 8.01003 27.8823 8.1616C27.4698 8.56972 27.493 8.52641 27.974 9.0141C28.5356 9.63147 28.9589 9.62116 27.9427 10.0502C27.7115 10.1543 27.4931 10.3915 27.2407 10.0487C27.088 9.84128 26.88 9.70191 26.9047 9.38235C26.9426 8.8896 26.5667 8.53235 26.3928 8.10691C26.3408 7.97997 26.249 8.06941 26.2001 8.13191C25.8341 8.60241 25.2813 8.78428 24.7806 9.04566C23.9156 9.80191 24.1131 9.71953 22.9653 9.68666C22.8591 9.69122 22.8278 9.5631 22.7817 9.48822C22.2038 8.5421 22.3158 8.31147 22.9146 7.41828C23.1348 7.28616 24.108 7.43866 24.2919 7.63078C24.3746 7.71703 24.4425 7.81753 24.5618 7.96791C24.6535 7.60166 24.607 7.32103 24.6165 7.0446C24.7716 5.91028 25.7248 6.42147 26.4014 6.1751C26.7212 5.93066 26.8525 5.80897 26.7846 5.68903C27.9158 6.86865 28.8445 8.22683 29.5334 9.70885ZM26.6921 5.5941C26.2303 5.29341 25.2043 4.97641 25.177 4.23341C25.7127 4.65163 26.2189 5.10627 26.6921 5.5941ZM5.45171 5.45035C6.31262 4.58818 7.27585 3.83466 8.3199 3.2066C8.67496 3.38785 8.92827 4.05466 9.37365 3.81772C9.84865 3.56847 10.3549 3.37078 10.6959 2.9251C10.8891 2.69041 11.2271 2.87003 11.4795 2.79885C12.4715 2.66453 12.7396 3.79403 13.1107 4.46597C13.078 4.49353 13.0607 4.51997 13.0465 4.51835C12.1857 4.42122 11.3965 4.6976 10.6164 4.99797C10.3601 5.09666 10.1626 5.10503 10.0023 4.85828C9.80421 4.55316 9.54965 4.54435 9.23358 4.67597C8.94083 4.88291 7.88902 4.91866 7.96171 5.33397C8.03308 5.72416 7.72502 6.38922 8.4254 6.25628C8.75358 6.1421 9.03571 7.11191 9.23627 6.55435C9.66665 4.8106 11.481 6.33228 12.88 5.2181C13.3947 4.91272 13.818 5.9186 14.018 6.27291C14.17 6.60535 14.28 6.99672 14.8144 6.88078C14.4793 7.21603 14.1418 7.54903 13.8105 7.88791C13.7143 7.98622 13.627 7.95472 13.519 7.91722C13.1024 7.7726 12.6801 7.64403 12.2649 7.49535C12.0668 7.42441 11.9718 7.41747 11.9763 7.68285C12.3153 9.50785 10.7606 7.74772 9.68096 9.11635C8.33371 10.4703 9.37634 11.6066 7.52471 13.03C7.41402 13.1317 7.32208 13.1439 7.21265 13.0635C6.40827 12.4925 4.60102 12.1823 4.00015 13.1157C3.99153 13.1438 3.98942 13.1735 3.99399 13.2025C3.99856 13.2316 4.00969 13.2592 4.02652 13.2833C4.34833 13.7992 4.37358 14.667 4.98458 13.8017C5.16646 13.6467 5.38008 13.6989 5.56633 13.7298C5.76227 13.7624 5.66496 13.9699 5.66008 14.0906C5.68777 14.5718 6.38002 14.6576 6.24383 15.1993C6.16615 15.5913 6.65983 15.3747 6.87677 15.4404C7.22746 15.491 7.49352 15.3737 7.71833 15.0998C7.88883 14.8921 8.86752 14.751 9.0929 14.8846C9.27158 15.0647 9.34665 15.346 9.47483 15.5658C9.6879 15.9933 9.69708 16.002 10.0107 15.6641C10.7313 15.0984 11.7443 15.546 12.43 15.9388C12.9686 16.2405 12.7907 17.3178 13.5931 17.163C13.7473 17.1266 13.8306 17.2579 13.9151 17.3531C14.498 18.0662 15.4391 17.9808 15.7839 18.9587C16.006 19.3665 15.9823 19.7239 15.7935 20.1274C15.6594 20.8853 15.2867 21.4437 14.4998 21.656C13.8758 21.8801 14.9285 22.8982 13.5002 23.3042C13.1339 23.384 13.0865 23.6645 13.1339 23.9935C13.2854 24.8409 13.0796 25.4804 12.1476 25.7037C11.872 25.7947 11.9211 26.1612 11.7903 26.3701C11.1473 27.542 11.7318 28.3969 12.5507 29.2176C11.832 29.26 11.053 29.3332 10.8046 28.5593C10.4942 27.6579 10.2133 26.7487 9.75309 25.9059C9.59852 25.6229 9.69802 25.2941 9.69402 24.9872C9.58183 23.7313 8.29946 22.7914 8.54033 21.4533C8.63371 20.7832 7.67783 21.7402 6.68815 20.5205C6.35827 20.1292 5.59071 19.1835 5.72327 18.6933C5.99421 18.0179 6.02277 17.2032 6.64827 16.7345C6.91471 16.5273 6.93896 15.8815 6.44202 16.0067C5.16552 16.2203 5.43827 15.2611 4.69065 15.4432C4.1844 15.4971 3.81896 15.3312 3.42552 14.977C2.24515 13.8913 1.90677 14.6957 1.23046 13.8908C1.68432 10.6938 3.16597 7.73122 5.45171 5.45035Z" fill="black"/>
</g>
<defs>
<clipPath id="clip0_187_67739">
<rect width="32" height="32" fill="white"/>
</clipPath>
</defs>
</svg>
