<svg width="12" height="12" viewBox="0 0 12 12" fill="none" xmlns="http://www.w3.org/2000/svg">
<path d="M5.62109 5.625L5.64159 5.615C5.70571 5.58297 5.77766 5.56998 5.84893 5.57758C5.92019 5.58517 5.98779 5.61303 6.04371 5.65785C6.09964 5.70268 6.14155 5.76259 6.16448 5.83049C6.18741 5.8984 6.1904 5.97145 6.17309 6.041L5.81909 7.459C5.80167 7.52858 5.80456 7.60171 5.82744 7.6697C5.85032 7.73768 5.89221 7.79768 5.94816 7.84258C6.00411 7.88748 6.07176 7.91538 6.14309 7.92299C6.21442 7.9306 6.28643 7.91758 6.35059 7.8855L6.37109 7.875M10.4961 6C10.4961 6.59095 10.3797 7.17611 10.1535 7.72207C9.9274 8.26804 9.59594 8.76411 9.17807 9.18198C8.76021 9.59984 8.26413 9.93131 7.71817 10.1575C7.1722 10.3836 6.58704 10.5 5.99609 10.5C5.40514 10.5 4.81998 10.3836 4.27402 10.1575C3.72805 9.93131 3.23198 9.59984 2.81411 9.18198C2.39625 8.76411 2.06478 8.26804 1.83864 7.72207C1.61249 7.17611 1.49609 6.59095 1.49609 6C1.49609 4.80653 1.9702 3.66193 2.81411 2.81802C3.65803 1.97411 4.80262 1.5 5.99609 1.5C7.18957 1.5 8.33416 1.97411 9.17807 2.81802C10.022 3.66193 10.4961 4.80653 10.4961 6ZM5.99609 4.125H6.00009V4.129H5.99609V4.125Z" stroke="#FF2424" stroke-width="0.75" stroke-linecap="round" stroke-linejoin="round"/>
</svg>
