<svg width="58" height="58" viewBox="0 0 58 58" fill="none" xmlns="http://www.w3.org/2000/svg">
<circle cx="29" cy="29" r="29" fill="#1364FF"/>
<path d="M28.5 44C24.803 44 21.0579 42.6076 18.2252 39.7748C15.4884 37.0381 14 33.3891 14 29.5C14 25.6109 15.4884 21.9619 18.2732 19.2252C20.9619 16.4884 24.6109 15 28.5 15C32.3891 15 36.0381 16.4884 38.7748 19.2732C44.4404 24.9387 44.4404 34.1573 38.7748 39.8228C35.9421 42.6076 32.197 44 28.5 44ZM23.3146 40.7351C26.5795 42.2235 30.3725 42.2235 33.6854 40.7351L28.5 35.5497L23.3146 40.7351ZM18.3692 36.606C18.7533 37.1821 19.2334 37.7103 19.7616 38.2384C20.2897 38.7666 20.8179 39.1987 21.394 39.6308L26.6275 34.3974C25.9553 34.1573 25.3311 33.7252 24.803 33.197C24.2748 32.6689 23.8907 32.0447 23.6026 31.3725L18.3692 36.606ZM30.3725 34.3974L35.606 39.6308C36.1821 39.2467 36.7103 38.7666 37.2384 38.2384C37.7666 37.7103 38.1987 37.1821 38.6308 36.606L33.3974 31.3725C33.1573 32.0447 32.7252 32.6689 32.197 33.197C31.6689 33.7252 31.0447 34.1093 30.3725 34.3974ZM17.2649 24.3146C16.5447 25.899 16.1126 27.6755 16.1126 29.5C16.1126 31.3245 16.4967 33.053 17.2649 34.6854L22.4503 29.5L17.2649 24.3146ZM34.5497 29.5L39.7351 34.6854C41.2235 31.4205 41.2235 27.6275 39.7351 24.3146L34.5497 29.5ZM28.5 26.4272C27.6838 26.4272 26.9156 26.7632 26.3394 27.3394C25.7632 27.9156 25.4272 28.6838 25.4272 29.5C25.4272 30.3162 25.7632 31.0844 26.3394 31.6606C26.9156 32.2368 27.6838 32.5728 28.5 32.5728C29.3162 32.5728 30.0844 32.2368 30.6606 31.6606C31.2368 31.0844 31.5728 30.3162 31.5728 29.5C31.5728 28.6838 31.2368 27.9156 30.6606 27.3394C30.0844 26.7632 29.3162 26.4272 28.5 26.4272ZM18.3692 22.394L23.6026 27.6275C23.8427 26.9553 24.2748 26.3311 24.803 25.803C25.3311 25.2748 25.9553 24.8907 26.6275 24.6026L21.394 19.3692C20.8179 19.7533 20.2897 20.2334 19.7616 20.7616C19.2334 21.2897 18.8013 21.8179 18.3692 22.394ZM32.197 25.803C32.7252 26.3311 33.1093 26.9553 33.3974 27.6275L38.6308 22.394C38.2467 21.8179 37.7666 21.2897 37.2384 20.7616C36.7103 20.2334 36.1821 19.8013 35.606 19.3692L30.3725 24.6026C31.0447 24.8907 31.6689 25.2748 32.197 25.803ZM23.3146 18.2649L28.5 23.4503L33.6854 18.2649C32.101 17.5447 30.3245 17.1126 28.5 17.1126C26.6755 17.1126 24.947 17.5447 23.3146 18.2649Z" fill="white"/>
</svg>
