<svg width="58" height="58" viewBox="0 0 58 58" fill="none" xmlns="http://www.w3.org/2000/svg">
<circle cx="29" cy="29" r="29" fill="#1364FF"/>
<path d="M19.6653 18.208C17.4561 18.208 15.6653 19.9988 15.6653 22.208V35.208C15.6653 37.6012 17.6054 39.5413 19.9986 39.5413H37.9986C40.3918 39.5413 42.3319 37.6012 42.3319 35.208V24.8747C42.3319 24.1383 41.735 23.5413 40.9986 23.5413H39.6653V19.5413C39.6653 18.8049 39.0683 18.208 38.3319 18.208H19.6653ZM19.6653 20.8747H36.9986V23.5413H19.6653C18.9289 23.5413 18.3319 22.9444 18.3319 22.208C18.3319 21.4716 18.9289 20.8747 19.6653 20.8747ZM19.6653 26.208H39.6653V35.208C39.6653 36.1285 38.919 36.8747 37.9986 36.8747H19.9986C19.0781 36.8747 18.3319 36.1285 18.3319 35.208L18.3397 25.9735C18.3397 25.9735 18.817 26.2121 19.6653 26.208ZM35.6653 30.208C34.9289 30.208 34.3319 30.8049 34.3319 31.5413C34.3319 32.2777 34.9289 32.8747 35.6653 32.8747C36.4017 32.8747 36.9986 32.2777 36.9986 31.5413C36.9986 30.8049 36.4017 30.208 35.6653 30.208Z" fill="white"/>
</svg>
