<svg width="58" height="58" viewBox="0 0 58 58" fill="none" xmlns="http://www.w3.org/2000/svg">
<circle cx="29" cy="29" r="29" fill="#1364FF"/>
<path d="M28.3382 15.7802L19.0049 21.1135C18.1089 21.6254 18.1089 22.935 19.0049 23.4469C20.1715 24.1135 27.1715 28.1135 28.3382 28.7802C28.7475 29.0145 29.2608 29.0145 29.6715 28.7802L39.0048 23.4469C39.9008 22.935 39.9008 21.6254 39.0048 21.1135L29.6715 15.7802C29.2622 15.5459 28.7488 15.5459 28.3382 15.7802ZM29.0048 18.4885L35.6302 22.2802L29.0048 26.0719C27.6288 25.2855 24.6235 23.5626 22.3795 22.2802L29.0048 18.4885ZM19.3382 27.6551C19.0089 27.745 18.6875 27.9605 18.5049 28.2802C18.1395 28.9195 18.3662 29.7482 19.0049 30.1135L28.3382 35.4469C28.7475 35.6811 29.2608 35.6811 29.6715 35.4469L39.0048 30.1135C39.6448 29.7482 39.8701 28.9195 39.5048 28.2802C39.1395 27.6409 38.3115 27.4149 37.6715 27.7802L29.0048 32.7386L20.3382 27.7802C20.0182 27.5975 19.6675 27.5654 19.3382 27.6551ZM19.3382 34.3218C19.0089 34.4117 18.6875 34.6271 18.5049 34.9469C18.1395 35.5862 18.3662 36.4149 19.0049 36.7802L28.3382 42.1135C28.7475 42.3478 29.2608 42.3478 29.6715 42.1135L39.0048 36.7802C39.6448 36.4149 39.8701 35.5862 39.5048 34.9469C39.1395 34.3075 38.3115 34.0815 37.6715 34.4469L29.0048 39.4053L20.3382 34.4469C20.0182 34.2642 19.6675 34.2321 19.3382 34.3218Z" fill="white"/>
</svg>
