<svg width="33" height="33" viewBox="0 0 33 33" fill="none" xmlns="http://www.w3.org/2000/svg">
<rect x="0.5" y="0.5" width="32" height="32" rx="10" fill="#F4F4F4"/>
<rect x="0.5" y="0.5" width="32" height="32" rx="10" stroke="#EBF0ED"/>
<path d="M8.99992 17C8.08325 17 7.33325 16.25 7.33325 15.3333V11.1667C7.33325 10.25 8.08325 9.5 8.99992 9.5H15.6666C16.5833 9.5 17.3333 10.25 17.3333 11.1667V15.3333C17.3333 16.25 16.5833 17 15.6666 17H13.9999V19.5L11.4999 17H8.99992ZM23.9999 22C24.9166 22 25.6666 21.25 25.6666 20.3333V16.1667C25.6666 15.25 24.9166 14.5 23.9999 14.5H18.9999V15.3333C18.9999 17.1667 17.4999 18.6667 15.6666 18.6667V20.3333C15.6666 21.25 16.4166 22 17.3333 22H18.9999V24.5L21.4999 22H23.9999Z" fill="black"/>
</svg>
