<svg width="20" height="20" viewBox="0 0 20 20" fill="none" xmlns="http://www.w3.org/2000/svg">
<path d="M2.50016 10C1.5835 10 0.833496 9.25 0.833496 8.33333V4.16667C0.833496 3.25 1.5835 2.5 2.50016 2.5H9.16683C10.0835 2.5 10.8335 3.25 10.8335 4.16667V8.33333C10.8335 9.25 10.0835 10 9.16683 10H7.50016V12.5L5.00016 10H2.50016ZM17.5002 15C18.4168 15 19.1668 14.25 19.1668 13.3333V9.16667C19.1668 8.25 18.4168 7.5 17.5002 7.5H12.5002V8.33333C12.5002 10.1667 11.0002 11.6667 9.16683 11.6667V13.3333C9.16683 14.25 9.91683 15 10.8335 15H12.5002V17.5L15.0002 15H17.5002Z" fill="black"/>
</svg>
