<svg width="33" height="39" viewBox="0 0 33 39" fill="none" xmlns="http://www.w3.org/2000/svg">
<path d="M29.776 11.0001H31.0203C31.187 11.0062 31.3516 10.9617 31.4924 10.8724C31.6333 10.783 31.7437 10.6531 31.8092 10.4998C31.8747 10.3464 31.8922 10.1768 31.8594 10.0133C31.8266 9.84979 31.745 9.70007 31.6253 9.58388L23.4303 1.4095C23.3163 1.2863 23.1673 1.20084 23.0034 1.16454C22.8394 1.12823 22.6683 1.14281 22.5129 1.20633C22.3575 1.26984 22.2251 1.37927 22.1335 1.52C22.042 1.66072 21.9955 1.82604 22.0003 1.99388V3.23825C22.0003 4.25871 22.2016 5.26916 22.5925 6.21177C22.9834 7.15438 23.5564 8.01065 24.2786 8.73159C25.0008 9.45253 25.8581 10.024 26.8014 10.4132C27.7447 10.8025 28.7555 11.0019 29.776 11.0001Z" fill="#F33152"/>
<path d="M18.4 19.3393C18.1796 19.0751 17.899 18.8677 17.5819 18.7343C17.1635 18.5732 16.7168 18.4984 16.2687 18.5143H15.375V24.4199H16.2963C16.712 24.4326 17.1267 24.3697 17.52 24.2343C17.8402 24.1159 18.1261 23.9198 18.3519 23.6637C18.5885 23.3798 18.7577 23.046 18.8469 22.6874C18.9633 22.2596 19.0189 21.8176 19.0119 21.3743C19.015 20.9869 18.9664 20.6008 18.8675 20.2262C18.7743 19.9015 18.6152 19.5996 18.4 19.3393Z" fill="#F33152"/>
<path d="M29.7756 13.75C28.394 13.7518 27.0256 13.4813 25.7487 12.9538C24.4717 12.4263 23.3113 11.6523 22.3337 10.676C21.3561 9.69972 20.5806 8.54029 20.0515 7.26404C19.5224 5.98778 19.25 4.61973 19.25 3.23814C19.25 2.38171 18.9107 1.56016 18.3064 0.953285C17.7021 0.346412 16.882 0.00364881 16.0256 1.218e-05H7.77562C6.75516 -0.00179555 5.74436 0.197637 4.80106 0.586899C3.85776 0.97616 3.00047 1.54761 2.27826 2.26855C1.55605 2.98948 0.98308 3.84576 0.59215 4.78837C0.20122 5.73098 -1.60117e-06 6.74143 0 7.76189V30.7381C-1.60117e-06 31.7586 0.20122 32.7691 0.59215 33.7117C0.98308 34.6543 1.55605 35.5105 2.27826 36.2315C3.00047 36.9524 3.85776 37.5239 4.80106 37.9131C5.74436 38.3024 6.75516 38.5018 7.77562 38.5H25.2588C27.3138 38.4946 29.2827 37.6744 30.7339 36.2193C32.1851 34.7643 33 32.7931 33 30.7381V16.9881C33 16.1317 32.6607 15.3102 32.0564 14.7033C31.4521 14.0964 30.632 13.7536 29.7756 13.75ZM12.0175 21.065C11.8669 21.4313 11.6312 21.7566 11.33 22.0138C11.0177 22.2819 10.6522 22.4811 10.2575 22.5981C9.77326 22.7402 9.27017 22.8074 8.76562 22.7975H8.06437V25.5475C8.06605 25.5924 8.05139 25.6364 8.02312 25.6713C7.98452 25.7142 7.93442 25.7452 7.87875 25.7606C7.79143 25.7878 7.70161 25.8063 7.61062 25.8156C7.32481 25.8427 7.03707 25.8427 6.75125 25.8156C6.65795 25.8067 6.5658 25.7883 6.47625 25.7606C6.42008 25.7464 6.36967 25.7152 6.33187 25.6713C6.30414 25.6361 6.28955 25.5923 6.29062 25.5475V17.7581C6.28386 17.672 6.29503 17.5853 6.32343 17.5037C6.35183 17.422 6.39684 17.3471 6.45562 17.2838C6.57347 17.1759 6.72916 17.1191 6.88875 17.1256H8.95125C9.1575 17.1256 9.35229 17.1256 9.53563 17.1256C9.76648 17.1476 9.99599 17.182 10.2231 17.2288C10.499 17.2871 10.7652 17.3843 11.0138 17.5175C11.2737 17.6499 11.5068 17.8294 11.7013 18.0469C11.893 18.2635 12.0402 18.5158 12.1344 18.7894C12.2353 19.0977 12.2841 19.4207 12.2788 19.745C12.2795 20.1979 12.1907 20.6465 12.0175 21.065ZM20.5219 23.375C20.3393 23.8987 20.0326 24.3705 19.6281 24.75C19.2206 25.1191 18.7337 25.3896 18.205 25.5406C17.5563 25.7216 16.8846 25.8073 16.2113 25.795H14.1488C14.0131 25.7988 13.8809 25.7522 13.7775 25.6644C13.7228 25.6087 13.6809 25.5416 13.6547 25.468C13.6286 25.3944 13.6189 25.3159 13.6262 25.2381V17.6756C13.6189 17.5979 13.6286 17.5194 13.6547 17.4458C13.6809 17.3722 13.7228 17.3051 13.7775 17.2494C13.8809 17.1615 14.0131 17.115 14.1488 17.1188H16.3762C17.0444 17.1041 17.7107 17.1969 18.3494 17.3938C18.8625 17.5548 19.3325 17.8298 19.7244 18.1981C20.1042 18.5671 20.3936 19.0189 20.57 19.5181C20.7602 20.0967 20.8486 20.7038 20.8312 21.3125C20.8506 22.0129 20.7458 22.7111 20.5219 23.375ZM27.1425 18.1775C27.1353 18.2532 27.1168 18.3274 27.0875 18.3975C27.0692 18.4442 27.041 18.4864 27.005 18.5213C26.975 18.5486 26.9356 18.5634 26.895 18.5625H24.0625V20.9H26.73C26.7658 20.8885 26.8042 20.8885 26.84 20.9C26.8771 20.9312 26.9055 20.9715 26.9225 21.0169C26.9512 21.0848 26.9698 21.1567 26.9775 21.23C27.0009 21.4586 27.0009 21.6889 26.9775 21.9175C26.9692 21.993 26.9507 22.067 26.9225 22.1375C26.9057 22.185 26.8774 22.2275 26.84 22.2613C26.8087 22.2856 26.7696 22.2978 26.73 22.2956H24.0625V25.5338C24.064 25.5807 24.0495 25.6268 24.0212 25.6644C23.9829 25.7077 23.9327 25.7387 23.8769 25.7538C23.7875 25.7821 23.6953 25.8005 23.6019 25.8088C23.3161 25.8358 23.0283 25.8358 22.7425 25.8088C22.649 25.801 22.5568 25.7826 22.4675 25.7538C22.4123 25.7374 22.3624 25.7065 22.3231 25.6644C22.2938 25.6274 22.2791 25.5809 22.2819 25.5338V17.6894C22.2745 17.6116 22.2842 17.5332 22.3104 17.4595C22.3365 17.3859 22.3784 17.3189 22.4331 17.2631C22.5365 17.1753 22.6687 17.1288 22.8044 17.1325H26.895C26.9345 17.131 26.9734 17.1431 27.005 17.1669C27.0422 17.2008 27.0705 17.2433 27.0875 17.2906C27.1167 17.3632 27.1352 17.4396 27.1425 17.5175C27.1491 17.632 27.1491 17.7468 27.1425 17.8613C27.1488 17.9712 27.1488 18.0814 27.1425 18.1913V18.1775Z" fill="#F33152"/>
<path d="M9.84312 18.7067C9.68922 18.6265 9.52101 18.5774 9.34813 18.5623C9.1704 18.5383 8.99121 18.5268 8.81188 18.5279H8.0625V21.4773H8.85312C9.08753 21.481 9.32061 21.4413 9.54062 21.3604C9.71933 21.2935 9.87957 21.1851 10.0081 21.0442C10.1323 20.902 10.2259 20.7359 10.2831 20.556C10.3481 20.3562 10.3806 20.1473 10.3794 19.9373C10.3897 19.6782 10.3354 19.4207 10.2213 19.1879C10.1426 18.9953 10.0116 18.8286 9.84312 18.7067Z" fill="#F33152"/>
</svg>
