<svg width="16" height="16" viewBox="0 0 16 16" fill="none" xmlns="http://www.w3.org/2000/svg">
<g clip-path="url(#clip0_187_54648)">
<path d="M15.8084 4.58232L11.347 0.120913C11.186 -0.0403042 10.9244 -0.0403042 10.7634 0.120913L10.7445 0.139816C10.4709 0.413299 10.3202 0.777089 10.3202 1.16391C10.3202 1.41312 10.3835 1.65227 10.5011 1.86433L5.83303 5.87065C5.47576 5.55135 5.01976 5.3766 4.53677 5.3766C4.0163 5.3766 3.52704 5.57925 3.15912 5.94725L3.13114 5.97524C2.96992 6.13637 2.96992 6.39772 3.13114 6.55885L5.80389 9.2316L3.20081 11.8346C3.14872 11.8882 1.91661 13.1578 1.10656 14.1682C0.335147 15.1302 0.182597 15.3064 0.174673 15.3155C0.0314515 15.4786 0.0393761 15.7246 0.192668 15.8786C0.272988 15.9593 0.378897 16.0001 0.485137 16.0001C0.581966 16.0001 0.679043 15.9662 0.757133 15.898C0.763985 15.892 0.93618 15.7423 1.90439 14.9661C2.91461 14.156 4.18429 12.9238 4.24199 12.8676L6.84086 10.2687L9.37047 12.7983C9.45103 12.879 9.5567 12.9193 9.66227 12.9193C9.76785 12.9193 9.8736 12.879 9.95408 12.7983L9.98207 12.7704C10.3501 12.4024 10.5527 11.9131 10.5527 11.3927C10.5527 10.9097 10.3779 10.4537 10.0587 10.0965L14.065 5.42835C14.2771 5.54598 14.5162 5.6093 14.7654 5.6093C15.1523 5.6093 15.516 5.45865 15.7895 5.185L15.8084 5.1661C15.9696 5.0048 15.9696 4.74345 15.8084 4.58232Z" fill="black" fill-opacity="0.5"/>
</g>
<defs>
<clipPath id="clip0_187_54648">
<rect width="16" height="16" fill="white"/>
</clipPath>
</defs>
</svg>
