<svg width="40" height="40" viewBox="0 0 40 40" fill="none" xmlns="http://www.w3.org/2000/svg">
<rect width="40" height="40" rx="12" fill="#E12626" fill-opacity="0.1"/>
<path fill-rule="evenodd" clip-rule="evenodd" d="M11.875 20C11.875 15.5125 15.5125 11.875 20 11.875C24.4875 11.875 28.125 15.5125 28.125 20C28.125 24.4875 24.4875 28.125 20 28.125C15.5125 28.125 11.875 24.4875 11.875 20ZM19.13 18.7983C20.085 18.3208 21.1608 19.1842 20.9017 20.22L20.3108 22.5833L20.3458 22.5667C20.4927 22.5021 20.6587 22.4965 20.8096 22.551C20.9605 22.6054 21.0846 22.7158 21.1564 22.8593C21.2281 23.0028 21.2419 23.1684 21.195 23.3217C21.148 23.4751 21.0439 23.6046 20.9042 23.6833L20.8708 23.7017C19.915 24.1792 18.8392 23.3158 19.0983 22.28L19.69 19.9167L19.655 19.9333C19.5813 19.9743 19.5 19.9999 19.4161 20.0087C19.3323 20.0174 19.2475 20.0091 19.1669 19.9842C19.0863 19.9593 19.0116 19.9183 18.9473 19.8638C18.8829 19.8093 18.8303 19.7423 18.7925 19.6669C18.7548 19.5915 18.7327 19.5092 18.7275 19.425C18.7224 19.3408 18.7344 19.2565 18.7627 19.177C18.7911 19.0976 18.8352 19.0247 18.8924 18.9628C18.9497 18.9009 19.0189 18.8512 19.0958 18.8167L19.13 18.7983ZM20 17.5C20.1658 17.5 20.3247 17.4342 20.4419 17.3169C20.5592 17.1997 20.625 17.0408 20.625 16.875C20.625 16.7092 20.5592 16.5503 20.4419 16.4331C20.3247 16.3158 20.1658 16.25 20 16.25C19.8342 16.25 19.6753 16.3158 19.5581 16.4331C19.4408 16.5503 19.375 16.7092 19.375 16.875C19.375 17.0408 19.4408 17.1997 19.5581 17.3169C19.6753 17.4342 19.8342 17.5 20 17.5Z" fill="#E12626"/>
</svg>
