<svg width="12" height="12" viewBox="0 0 12 12" fill="none" xmlns="http://www.w3.org/2000/svg">
<path d="M4.875 3.00022C4.87486 2.7197 4.79606 2.44484 4.64755 2.20686C4.49904 1.96888 4.28678 1.77731 4.03486 1.65391C3.78294 1.53051 3.50147 1.48022 3.2224 1.50876C2.94334 1.5373 2.67787 1.64352 2.45615 1.81535C2.23442 1.98719 2.06532 2.21776 1.96806 2.48088C1.87079 2.74399 1.84926 3.02911 1.9059 3.30385C1.96254 3.57859 2.09509 3.83195 2.28849 4.03514C2.48189 4.23833 2.72839 4.38322 3 4.45335V7.5471C2.64651 7.63837 2.33843 7.85543 2.13353 8.1576C1.92862 8.45977 1.84096 8.82629 1.88696 9.18847C1.93296 9.55065 2.10948 9.88362 2.38342 10.125C2.65736 10.3663 3.00991 10.4995 3.375 10.4995C3.74009 10.4995 4.09265 10.3663 4.36659 10.125C4.64053 9.88362 4.81704 9.55065 4.86305 9.18847C4.90905 8.82629 4.82138 8.45977 4.61648 8.1576C4.41157 7.85543 4.1035 7.63837 3.75 7.5471V4.45335C4.07187 4.36974 4.35692 4.18174 4.5605 3.91878C4.76408 3.65583 4.87469 3.33277 4.875 3.00022ZM2.625 3.00022C2.625 2.85189 2.66899 2.70688 2.7514 2.58354C2.83381 2.46021 2.95095 2.36408 3.08799 2.30731C3.22504 2.25055 3.37584 2.23569 3.52132 2.26463C3.66681 2.29357 3.80044 2.365 3.90533 2.46989C4.01022 2.57478 4.08165 2.70842 4.11059 2.8539C4.13953 2.99939 4.12468 3.15019 4.06791 3.28723C4.01115 3.42428 3.91502 3.54141 3.79168 3.62382C3.66834 3.70623 3.52334 3.75022 3.375 3.75022C3.17609 3.75022 2.98533 3.6712 2.84467 3.53055C2.70402 3.3899 2.625 3.19913 2.625 3.00022ZM4.125 9.00022C4.125 9.14856 4.08102 9.29356 3.99861 9.4169C3.91619 9.54024 3.79906 9.63636 3.66202 9.69313C3.52497 9.7499 3.37417 9.76475 3.22869 9.73581C3.0832 9.70687 2.94956 9.63544 2.84467 9.53055C2.73978 9.42566 2.66835 9.29202 2.63941 9.14654C2.61048 9.00105 2.62533 8.85025 2.68209 8.71321C2.73886 8.57616 2.83499 8.45903 2.95833 8.37662C3.08166 8.29421 3.22667 8.25022 3.375 8.25022C3.57392 8.25022 3.76468 8.32924 3.90533 8.46989C4.04599 8.61054 4.125 8.80131 4.125 9.00022ZM9.75 7.5471V5.186C9.75075 5.03807 9.72213 4.89147 9.66581 4.75468C9.60948 4.61789 9.52657 4.49364 9.42188 4.38913L7.65516 2.62522H9C9.09946 2.62522 9.19484 2.58571 9.26517 2.51539C9.33549 2.44506 9.375 2.34968 9.375 2.25022C9.375 2.15076 9.33549 2.05538 9.26517 1.98506C9.19484 1.91473 9.09946 1.87522 9 1.87522H6.75C6.65055 1.87522 6.55516 1.91473 6.48484 1.98506C6.41451 2.05538 6.375 2.15076 6.375 2.25022V4.50022C6.375 4.59968 6.41451 4.69506 6.48484 4.76539C6.55516 4.83571 6.65055 4.87522 6.75 4.87522C6.84946 4.87522 6.94484 4.83571 7.01517 4.76539C7.08549 4.69506 7.125 4.59968 7.125 4.50022V3.15538L8.89032 4.9221C8.92513 4.95695 8.95273 4.99832 8.97155 5.04384C8.99038 5.08936 9.00004 5.13815 9 5.18741V7.5471C8.64651 7.63837 8.33843 7.85543 8.13353 8.1576C7.92862 8.45977 7.84096 8.82629 7.88696 9.18847C7.93296 9.55065 8.10948 9.88362 8.38342 10.125C8.65736 10.3663 9.00991 10.4995 9.375 10.4995C9.74009 10.4995 10.0927 10.3663 10.3666 10.125C10.6405 9.88362 10.817 9.55065 10.863 9.18847C10.909 8.82629 10.8214 8.45977 10.6165 8.1576C10.4116 7.85543 10.1035 7.63837 9.75 7.5471ZM9.375 9.75022C9.22667 9.75022 9.08166 9.70623 8.95832 9.62382C8.83499 9.54141 8.73886 9.42428 8.68209 9.28723C8.62533 9.15019 8.61048 8.99939 8.63941 8.8539C8.66835 8.70842 8.73978 8.57478 8.84467 8.46989C8.94956 8.365 9.0832 8.29357 9.22869 8.26463C9.37417 8.23569 9.52497 8.25055 9.66202 8.30731C9.79906 8.36408 9.91619 8.46021 9.9986 8.58354C10.081 8.70688 10.125 8.85189 10.125 9.00022C10.125 9.19913 10.046 9.3899 9.90533 9.53055C9.76468 9.6712 9.57392 9.75022 9.375 9.75022Z" fill="black"/>
</svg>
