<svg width="35" height="35" viewBox="0 0 35 35" fill="none" xmlns="http://www.w3.org/2000/svg">
<g clip-path="url(#clip0_187_53526)">
<path d="M34.958 2.61282C34.8822 1.22253 33.7765 0.116954 32.3862 0.0410756C29.5809 -0.112186 24.0913 0.0369058 18.8422 2.75194C16.1662 4.13608 13.3362 6.48278 11.0776 9.19036C11.0498 9.22372 11.0227 9.25729 10.9951 9.29071L5.86954 9.68665C5.02585 9.75187 4.27437 10.1941 3.80775 10.8998L0.310896 16.1889C-0.0430005 16.7242 -0.0992603 17.394 0.1603 17.9808C0.419929 18.5676 0.953406 18.9765 1.58744 19.0747L5.90577 19.7435C5.89053 19.8275 5.87521 19.9114 5.8612 19.9953C5.71744 20.8553 6.00236 21.7394 6.62348 22.3605L12.6386 28.3756C13.1535 28.8906 13.8493 29.1745 14.5623 29.1745C14.7092 29.1745 14.8568 29.1624 15.0038 29.1378C15.0877 29.1238 15.1716 29.1085 15.2556 29.0933L15.9244 33.4117C16.0226 34.0457 16.4315 34.5792 17.0182 34.8388C17.2623 34.9468 17.5206 35.0001 17.7778 35.0001C18.139 35.0001 18.4976 34.8949 18.8101 34.6883L24.0992 31.1913C24.805 30.7247 25.2472 29.9732 25.3122 29.1296L25.7082 24.004C25.7416 23.9764 25.7752 23.9494 25.8086 23.9215C28.5163 21.663 30.863 18.8329 32.2471 16.1569C34.9623 10.9075 35.1111 5.41795 34.958 2.61282ZM22.9682 29.4806L17.9089 32.8256L17.257 28.6171C19.3953 27.9884 21.5105 26.9814 23.5257 25.6325L23.2678 28.9715C23.2517 29.1798 23.1425 29.3654 22.9682 29.4806ZM14.0887 26.9255L8.07351 20.9104C7.92005 20.7568 7.84909 20.5412 7.88389 20.3334C8.06271 19.2641 8.34059 18.2461 8.68458 17.2872L17.7099 26.3125C16.5582 26.7251 15.5266 26.9712 14.6656 27.1151C14.4575 27.1497 14.2421 27.079 14.0887 26.9255ZM6.02752 11.7313L9.36646 11.4734C8.01746 13.4886 7.01053 15.6038 6.38182 17.7421L2.17335 17.0903L5.51845 12.0309C5.6337 11.8566 5.8193 11.7474 6.02752 11.7313ZM24.4951 22.3466C22.8386 23.7283 21.2306 24.7278 19.7484 25.4509L9.54775 15.2503C10.4951 13.3154 11.6512 11.7043 12.6524 10.504C14.7425 7.99831 17.342 5.83672 19.7844 4.57344C24.602 2.08153 29.6777 1.94735 32.2746 2.08871C32.6183 2.10744 32.8917 2.38081 32.9104 2.72459C33.052 5.32143 32.9175 10.3971 30.4256 15.2147C29.1624 17.6571 27.0008 20.2565 24.4951 22.3466Z" fill="black"/>
<path d="M23.9745 16.1492C25.2871 16.1491 26.6003 15.6494 27.5996 14.65C28.568 13.6817 29.1012 12.3942 29.1012 11.0248C29.1012 9.65547 28.568 8.36799 27.5996 7.39968C25.6007 5.40064 22.3481 5.40078 20.3493 7.39968C19.3809 8.36799 18.8477 9.65547 18.8477 11.0248C18.8477 12.3942 19.381 13.6817 20.3493 14.65C21.3489 15.6496 22.6614 16.1493 23.9745 16.1492ZM21.7993 8.84971C22.3989 8.25 23.1866 7.95017 23.9743 7.95017C24.7621 7.95017 25.5498 8.25 26.1495 8.84971C26.7304 9.4307 27.0504 10.2032 27.0504 11.0248C27.0504 11.8464 26.7304 12.6189 26.1495 13.1999C24.9502 14.3993 22.9986 14.3992 21.7992 13.1999C21.2182 12.6189 20.8982 11.8465 20.8982 11.0248C20.8982 10.2032 21.2183 9.4307 21.7993 8.84971Z" fill="black"/>
<path d="M1.04586 28.8435C1.3083 28.8435 1.57073 28.7434 1.77088 28.5431L5.11865 25.1953C5.5191 24.7949 5.5191 24.1457 5.11865 23.7452C4.71827 23.3448 4.06899 23.3448 3.66854 23.7452L0.320845 27.093C-0.0796045 27.4934 -0.0796045 28.1426 0.320845 28.5431C0.521001 28.7433 0.783433 28.8435 1.04586 28.8435Z" fill="black"/>
<path d="M8.18675 26.8132C7.78637 26.4127 7.13709 26.4127 6.73665 26.8132L0.300337 33.2495C-0.100112 33.65 -0.100112 34.2992 0.300337 34.6996C0.500562 34.8999 0.762925 34.9999 1.02536 34.9999C1.28779 34.9999 1.55022 34.8999 1.75038 34.6996L8.18668 28.2633C8.5872 27.8628 8.5872 27.2136 8.18675 26.8132Z" fill="black"/>
<path d="M9.80435 29.8811L6.45659 33.2289C6.05614 33.6294 6.05614 34.2786 6.45659 34.679C6.65681 34.8792 6.91924 34.9794 7.18161 34.9794C7.44397 34.9794 7.70647 34.8793 7.90663 34.679L11.2544 31.3313C11.6548 30.9308 11.6548 30.2816 11.2544 29.8811C10.854 29.4807 10.2047 29.4807 9.80435 29.8811Z" fill="black"/>
</g>
<defs>
<clipPath id="clip0_187_53526">
<rect width="35" height="35" fill="white"/>
</clipPath>
</defs>
</svg>
