<svg width="80" height="80" viewBox="0 0 80 80" fill="none" xmlns="http://www.w3.org/2000/svg">
<circle cx="40" cy="40" r="40" fill="#FAFAFA"/>
<g clip-path="url(#clip0_187_67715)">
<path d="M53.2127 37.2129C51.9544 37.2129 50.8882 38.0473 50.5438 39.1996H47.4643C47.4908 39.4645 47.5041 39.7294 47.5041 40.001C47.5041 40.3851 47.4776 40.7559 47.418 41.1268H50.663C51.0935 42.1069 52.0736 42.7891 53.2127 42.7891C54.7491 42.7891 56.0008 41.544 56.0008 40.001C56.0008 38.4645 54.7491 37.2129 53.2127 37.2129Z" fill="black"/>
<path d="M29.404 41.1253H32.5762C32.5232 40.7611 32.4901 40.3836 32.4901 39.9995C32.4901 39.7279 32.5033 39.463 32.5298 39.1981H29.404C29.0132 38.1319 27.9868 37.377 26.7881 37.377C25.2517 37.377 24 38.622 24 40.165C24 41.7081 25.245 42.9531 26.7881 42.9531C27.9868 42.9465 29.0132 42.1849 29.404 41.1253Z" fill="black"/>
<path d="M39.0388 29.404V32.5563C39.3566 32.5166 39.6745 32.4967 39.999 32.4967C40.3235 32.4967 40.648 32.5166 40.9593 32.5563V29.404C42.0255 29.0132 42.7871 27.9868 42.7871 26.7881C42.7871 25.2517 41.5421 24 39.999 24C38.4626 24 37.2109 25.245 37.2109 26.7881C37.2109 27.9868 37.9725 29.0132 39.0388 29.404Z" fill="black"/>
<path d="M45.9463 35.4173L48.1781 33.1855C49.2045 33.6623 50.4628 33.4769 51.3105 32.6292C52.3966 31.5431 52.3966 29.7815 51.3105 28.6954C50.2244 27.6093 48.4628 27.6093 47.3767 28.6954C46.5291 29.5431 46.3436 30.8014 46.8204 31.8279L45.3966 33.2451L44.582 34.0597C45.092 34.4504 45.5489 34.9073 45.9463 35.4173Z" fill="black"/>
<path d="M30.6553 33.4433C31.0725 33.4433 31.4698 33.3506 31.8275 33.1851L34.0592 35.4169C34.45 34.9069 34.9069 34.45 35.4169 34.0592L33.1851 31.8275C33.3506 31.4698 33.4433 31.0791 33.4433 30.6553C33.4433 29.1188 32.1983 27.8672 30.6553 27.8672C29.1188 27.8672 27.8672 29.1122 27.8672 30.6553C27.8738 32.1983 29.1188 33.4433 30.6553 33.4433Z" fill="black"/>
<path d="M34.0514 44.582L31.8196 46.8138C31.462 46.6483 31.0713 46.5555 30.6475 46.5555C29.111 46.5555 27.8594 47.8006 27.8594 49.3436C27.8594 50.8867 29.1044 52.1317 30.6475 52.1317C32.1839 52.1317 33.4355 50.8867 33.4355 49.3436C33.4355 48.9264 33.3428 48.5291 33.1773 48.1714L35.4024 45.9396C34.9057 45.5489 34.4488 45.092 34.0514 44.582Z" fill="black"/>
<path d="M49.3436 46.5555C48.9264 46.5555 48.5291 46.6483 48.1714 46.8138L45.9396 44.582C45.5489 45.092 45.092 45.5489 44.582 45.9396L46.8138 48.1714C46.6483 48.5291 46.5555 48.9198 46.5555 49.3436C46.5555 50.88 47.8006 52.1317 49.3436 52.1317C50.88 52.1317 52.1317 50.8867 52.1317 49.3436C52.1251 47.8006 50.88 46.5555 49.3436 46.5555Z" fill="black"/>
<path d="M40.9593 50.5969V48.6565V47.4512C40.6414 47.4909 40.3235 47.5108 39.999 47.5108C39.6745 47.5108 39.35 47.4909 39.0388 47.4512V48.6565V50.5969C37.9725 50.9876 37.2109 52.0141 37.2109 53.2128C37.2109 54.7492 38.456 56.0008 39.999 56.0008C41.5354 56.0008 42.7871 54.7558 42.7871 53.2128C42.7871 52.0141 42.0255 50.9876 40.9593 50.5969Z" fill="black"/>
<path d="M39.9991 33.9727C36.668 33.9727 33.9727 36.668 33.9727 39.9991C33.9727 43.3303 36.668 46.0256 39.9991 46.0256C43.3303 46.0256 46.0256 43.3303 46.0256 39.9991C46.0256 36.668 43.3303 33.9727 39.9991 33.9727ZM39.9991 38.0323C38.9131 38.0323 38.0323 38.9131 38.0323 39.9991C38.0323 40.4958 37.6283 40.8998 37.1316 40.8998C36.6349 40.8998 36.2309 40.4958 36.2309 39.9991C36.2309 37.9263 37.9197 36.2376 39.9925 36.2376C40.4892 36.2376 40.8932 36.6415 40.8932 37.1382C40.8998 37.6349 40.4958 38.0323 39.9991 38.0323Z" fill="black"/>
</g>
<defs>
<clipPath id="clip0_187_67715">
<rect width="32" height="32" fill="white" transform="translate(24 24)"/>
</clipPath>
</defs>
</svg>
