<svg width="28" height="28" viewBox="0 0 28 28" fill="none" xmlns="http://www.w3.org/2000/svg">
<path d="M16.8575 4.66664C16.5608 4.17385 16.1416 3.76615 15.6408 3.48314C15.14 3.20012 14.5745 3.05139 13.9992 3.05139C13.4239 3.05139 12.8585 3.20012 12.3576 3.48314C11.8568 3.76615 11.4377 4.17385 11.1409 4.66664L1.94754 19.6816C1.63926 20.1891 1.47149 20.7695 1.46142 21.3632C1.45135 21.9569 1.59934 22.5426 1.89023 23.0603C2.18112 23.5779 2.60443 24.0089 3.11678 24.3091C3.62913 24.6092 4.21208 24.7677 4.80587 24.7683H23.1925C23.7863 24.7677 24.3693 24.6092 24.8816 24.3091C25.394 24.0089 25.8173 23.5779 26.1082 23.0603C26.3991 22.5426 26.5471 21.9569 26.537 21.3632C26.5269 20.7695 26.3591 20.1891 26.0509 19.6816L16.8575 4.66664Z" fill="#F56C2C"/>
<path d="M13.998 17.2083C13.7669 17.2052 13.5461 17.1121 13.3827 16.9486C13.2192 16.7852 13.1261 16.5644 13.123 16.3333V11.0833C13.123 10.8512 13.2152 10.6286 13.3793 10.4645C13.5434 10.3004 13.766 10.2083 13.998 10.2083C14.2301 10.2083 14.4527 10.3004 14.6168 10.4645C14.7809 10.6286 14.873 10.8512 14.873 11.0833V16.3333C14.87 16.5644 14.7769 16.7852 14.6134 16.9486C14.45 17.1121 14.2292 17.2052 13.998 17.2083Z" fill="white"/>
<path d="M13.9987 20.4166C14.643 20.4166 15.1654 19.8943 15.1654 19.2499C15.1654 18.6056 14.643 18.0833 13.9987 18.0833C13.3544 18.0833 12.832 18.6056 12.832 19.2499C12.832 19.8943 13.3544 20.4166 13.9987 20.4166Z" fill="white"/>
</svg>
