<svg width="24" height="23" viewBox="0 0 24 23" fill="none" xmlns="http://www.w3.org/2000/svg">
<path d="M8.16667 3.5C8.16667 2.57174 8.53542 1.6815 9.19179 1.02513C9.84817 0.368749 10.7384 0 11.6667 0C12.5949 0 13.4852 0.368749 14.1415 1.02513C14.7979 1.6815 15.1667 2.57174 15.1667 3.5C15.1667 4.42826 14.7979 5.3185 14.1415 5.97487C13.4852 6.63125 12.5949 7 11.6667 7C10.7384 7 9.84817 6.63125 9.19179 5.97487C8.53542 5.3185 8.16667 4.42826 8.16667 3.5ZM19.25 1.16667C18.4765 1.16667 17.7346 1.47396 17.1876 2.02094C16.6406 2.56792 16.3333 3.30978 16.3333 4.08333C16.3333 4.85688 16.6406 5.59875 17.1876 6.14573C17.7346 6.69271 18.4765 7 19.25 7C20.0235 7 20.7654 6.69271 21.3124 6.14573C21.8594 5.59875 22.1667 4.85688 22.1667 4.08333C22.1667 3.30978 21.8594 2.56792 21.3124 2.02094C20.7654 1.47396 20.0235 1.16667 19.25 1.16667ZM4.08333 1.16667C3.30979 1.16667 2.56792 1.47396 2.02094 2.02094C1.47396 2.56792 1.16667 3.30978 1.16667 4.08333C1.16667 4.85688 1.47396 5.59875 2.02094 6.14573C2.56792 6.69271 3.30979 7 4.08333 7C4.85688 7 5.59875 6.69271 6.14573 6.14573C6.69271 5.59875 7 4.85688 7 4.08333C7 3.30978 6.69271 2.56792 6.14573 2.02094C5.59875 1.47396 4.85688 1.16667 4.08333 1.16667ZM8.89583 8.16667C8.23832 8.16667 7.60773 8.42786 7.1428 8.8928C6.67786 9.35773 6.41667 9.98832 6.41667 10.6458V16.9167C6.41667 18.3091 6.96979 19.6444 7.95436 20.629C8.93892 21.6135 10.2743 22.1667 11.6667 22.1667C13.0591 22.1667 14.3944 21.6135 15.379 20.629C16.3635 19.6444 16.9167 18.3091 16.9167 16.9167V10.6458C16.9167 9.98832 16.6555 9.35773 16.1905 8.8928C15.7256 8.42786 15.095 8.16667 14.4375 8.16667H8.89583ZM5.25 10.6458C5.25 9.7125 5.60117 8.86025 6.17867 8.21508C6.01693 8.18284 5.85242 8.16662 5.6875 8.16667H2.47917C1.82165 8.16667 1.19107 8.42786 0.726131 8.8928C0.261197 9.35773 1.55827e-07 9.98832 1.55827e-07 10.6458V16.3333C-0.000194631 17.0385 0.18223 17.7317 0.529509 18.3454C0.876788 18.9591 1.37708 19.4725 1.98168 19.8354C2.58627 20.1984 3.27454 20.3985 3.97948 20.4165C4.68442 20.4344 5.38199 20.2695 6.00425 19.9377C5.50747 19.0084 5.24835 17.9705 5.25 16.9167V10.6458ZM18.0833 16.9167C18.0833 18.0087 17.8103 19.0371 17.3291 19.9377C17.9513 20.2695 18.6489 20.4344 19.3539 20.4165C20.0588 20.3985 20.7471 20.1984 21.3517 19.8354C21.9562 19.4725 22.4565 18.9591 22.8038 18.3454C23.1511 17.7317 23.3335 17.0385 23.3333 16.3333V10.6458C23.3333 9.98832 23.0721 9.35773 22.6072 8.8928C22.1423 8.42786 21.5117 8.16667 20.8542 8.16667H17.6458C17.4774 8.16706 17.3137 8.18319 17.1547 8.21508C17.7536 8.88294 18.0844 9.74873 18.0833 10.6458V16.9167Z" fill="#999999"/>
</svg>
