<svg width="26" height="24" viewBox="0 0 26 24" fill="none" xmlns="http://www.w3.org/2000/svg">
<path d="M19.8337 22.1678C19.8337 19.6925 18.8503 17.3185 17.1 15.5681C15.3496 13.8178 12.9757 12.8345 10.5003 12.8345C8.02497 12.8345 5.651 13.8178 3.90066 15.5681C2.15032 17.3185 1.16699 19.6925 1.16699 22.1678" stroke="#999999" stroke-width="2.33333" stroke-linecap="round" stroke-linejoin="round"/>
<path d="M10.5003 12.8332C13.722 12.8332 16.3337 10.2215 16.3337 6.99984C16.3337 3.77818 13.722 1.1665 10.5003 1.1665C7.27866 1.1665 4.66699 3.77818 4.66699 6.99984C4.66699 10.2215 7.27866 12.8332 10.5003 12.8332Z" stroke="#999999" stroke-width="2.33333" stroke-linecap="round" stroke-linejoin="round"/>
<path d="M24.4993 20.9996C24.4993 17.0679 22.166 13.4162 19.8326 11.6662C20.5996 11.0908 21.2129 10.3352 21.6183 9.46622C22.0236 8.59727 22.2085 7.64179 22.1566 6.68434C22.1047 5.7269 21.8176 4.79701 21.3207 3.97698C20.8237 3.15694 20.1323 2.47205 19.3076 1.98291" stroke="#999999" stroke-width="2.33333" stroke-linecap="round" stroke-linejoin="round"/>
</svg>
