<svg width="14" height="14" viewBox="0 0 14 14" fill="none" xmlns="http://www.w3.org/2000/svg">
<path d="M7 3.4082C11.1049 3.4082 13 7.41453 13 7.41453C13 7.41453 11.1049 11.4208 7 11.4208C2.89508 11.4208 1 7.41453 1 7.41453C1 7.41453 2.89508 3.4082 7 3.4082Z" stroke="black" stroke-width="1.2" stroke-linejoin="round"/>
<path d="M8.7895 7.41481C8.795 7.67475 8.75133 7.93323 8.66104 8.17508C8.57076 8.41693 8.43568 8.63726 8.26375 8.82316C8.09182 9.00905 7.88649 9.15675 7.65983 9.2576C7.43316 9.35844 7.18972 9.41038 6.94381 9.41038C6.6979 9.41038 6.45446 9.35844 6.22779 9.2576C6.00113 9.15675 5.7958 9.00905 5.62387 8.82316C5.45194 8.63726 5.31686 8.41693 5.22658 8.17508C5.13629 7.93323 5.09262 7.67475 5.09812 7.41481C5.09812 6.89713 5.29262 6.40065 5.63884 6.0346C5.98506 5.66854 6.45464 5.46289 6.94427 5.46289C7.4339 5.46289 7.90348 5.66854 8.2497 6.0346C8.59592 6.40065 8.79043 6.89713 8.79043 7.41481H8.7895Z" stroke="black" stroke-width="1.5" stroke-linejoin="round"/>
</svg>
