<svg width="40" height="40" viewBox="0 0 40 40" fill="none" xmlns="http://www.w3.org/2000/svg">
<path fill-rule="evenodd" clip-rule="evenodd" d="M15.125 0H35.0625C35.442 0 35.75 0.308 35.75 0.6875V14.4375H37.9143C38.434 14.4375 38.9331 14.6445 39.3009 15.0116C39.6543 15.3656 39.8592 15.8414 39.8743 16.3398C39.875 16.3666 39.875 16.3927 39.875 16.4196V30.25C39.875 31.4676 38.9861 32.978 37.125 32.978C37.125 32.978 5.56188 33 4.22606 33C2.21169 33 2.35812 35.8091 4.125 36.0938V34.375H35.75V39.1875C35.75 39.567 35.442 39.875 35.0625 39.875H4.8125C4.433 39.875 4.125 39.567 4.125 39.1875V36.4375H1.96075C1.441 36.4375 0.94188 36.2305 0.574067 35.8634C0.206942 35.4956 0 34.9965 0 34.4768V20.6635C0 19.171 1.20863 17.875 2.70119 17.875H35.7314C37.202 17.875 37.9053 15.6613 35.75 14.7812V16.5H4.125V11H14.4375C14.817 11 15.125 10.692 15.125 10.3125V0ZM25.4375 28.875V23.6596L27.0139 25.236C27.2821 25.5049 27.7179 25.5049 27.9861 25.236L29.5625 23.6596V28.875C29.5625 29.2545 29.8705 29.5625 30.25 29.5625C30.6295 29.5625 30.9375 29.2545 30.9375 28.875V22C30.9375 21.7222 30.7697 21.4713 30.5133 21.3647C30.2562 21.2582 29.9606 21.3173 29.7639 21.514L27.5 23.7779L25.2361 21.514C25.0394 21.3173 24.7438 21.2582 24.4867 21.3647C24.2303 21.4713 24.0625 21.7222 24.0625 22V28.875C24.0625 29.2545 24.3705 29.5625 24.75 29.5625C25.1295 29.5625 25.4375 29.2545 25.4375 28.875ZM17.864 22V28.875C17.864 29.2545 18.172 29.5625 18.5515 29.5625H22C22.3795 29.5625 22.6875 29.2545 22.6875 28.875C22.6875 28.4955 22.3795 28.1875 22 28.1875H19.239V22C19.239 21.6205 18.931 21.3125 18.5515 21.3125C18.172 21.3125 17.864 21.6205 17.864 22ZM12.0312 25.4375L9.76251 28.4625C9.53495 28.7664 9.59612 29.1974 9.9 29.425C10.2039 29.6526 10.6349 29.5914 10.8625 29.2875L12.8906 26.5836L14.9188 29.2875C15.1463 29.5914 15.5774 29.6526 15.8813 29.425C16.1851 29.1974 16.2463 28.7664 16.0187 28.4625L13.75 25.4375L16.0187 22.4125C16.2463 22.1086 16.1851 21.6776 15.8813 21.45C15.5774 21.2224 15.1463 21.2836 14.9188 21.5875L12.8906 24.2914L10.8625 21.5875C10.6349 21.2836 10.2039 21.2224 9.9 21.45C9.59612 21.6776 9.53495 22.1086 9.76251 22.4125L12.0312 25.4375ZM13.75 9.625H5.21537L13.75 1.09037V9.625Z" fill="#098B0E"/>
</svg>
